STARTFONT 2.1
FONT -wenquanyi-wenquanyi bitmap song-medium-r-normal--16-160-75-75-P-80-iso10646-1
COMMENT ==========================================================
COMMENT                Wen Quan Yi Bitmap Song
COMMENT ----------------------------------------------------------
COMMENT Summary:
COMMENT
COMMENT     	Authors  : WenQuanYi Contributors
COMMENT     	Webpage  : http://wenq.org/en/
COMMENT     	Font Name: WenQuanYi Bitmap Song
COMMENT     	Version  : 0.9.9.8
COMMENT     	Release  : 8
COMMENT     	Copyright: (C)2004-2010, WenQuanYi Project
COMMENT     		   Board of Trustees and Qianqian Fang
COMMENT     	License  : GPL v2 (with font embedding exception)
COMMENT
COMMENT           May the Font be with you, forever!
COMMENT ----------------------------------------------------------
COMMENT WenQuanYi bitmap fonts include all 20,932 Unicode 5.2
COMMENT CJK Unified Ideographs (U4E00 - U9FA5) and 6,582
COMMENT CJK Extension A characters (U3400 - U4DB5) at
COMMENT 5 different pixel sizes (9pt-12X12, 10pt-13X13,
COMMENT 10.5pt-14x14, 11pt-15X15 and 12pt-16x16 pixel).
COMMENT Use of this bitmap font for on-screen display of Chinese
COMMENT (traditional and simplified) in web pages and elsewhere
COMMENT eliminates the annoying "blurring" problems caused by
COMMENT insufficient "hinting" of anti-aliased vector CJK fonts.
COMMENT In addition, Latin characters, Japanese Kanas and
COMMENT Korean Hangul glyphs (U+AC00~U+D7A3) are also included.
COMMENT ----------------------------------------------------------
COMMENT WenQuanYi Contributors:
COMMENT
COMMENT Project Maintainer: Qianqian Fang(fangq<at>nmr.mgh.harvard.edu)
COMMENT
COMMENT Major contributors: wanghong, tchaikov,ailantian,niqiu,fiag
COMMENT                     caiqian,fundawang
COMMENT Other contributors: activeion,amadeoh,BabyPBC,BenBear,
COMMENT                     brep,chaoslawful,DannyZeng,farm,fiag,keykeen,
COMMENT                     liyi,lucifer,nilarcs,niqiu,pangwa,pathfinder,
COMMENT                     pinker,PONY,pupilzeng,shhky,stid,wuler.lv,
COMMENT                     xnuxmwx,namespace,leftstand,MarkLam,buick,
COMMENT                     liqian,qinling,Seeker,xiaoma,ZaiJianQingRen,
COMMENT 		    SiCengXiangShi,the_owl,whppc,eka,failsafe,
COMMENT                     musiccow,Blueelf,lenovox,udi,leal
COMMENT ----------------------------------------------------------
COMMENT This file: WenQuanYi Bitmap Song 12pt medium
COMMENT Created by Qianqian Fang (fangq<at>nmr.mgh.harvard.edu)
COMMENT ----------------------------------------------------------
SIZE 16 75 75
FONTBOUNDINGBOX 16 19 0 -4
STARTPROPERTIES 21
FONT_ASCENT 14
FONT_DESCENT 4
FONT_NAME "WenQuanYi Bitmap Song"
FAMILY_NAME "WenQuanYi Bitmap Song"
FOUNDRY "WenQuanYi"
FONT_VERSION "000.998"
WEIGHT_NAME "Medium"
SETWIDTH_NAME "Normal"
PIXEL_SIZE 16
POINT_SIZE 160
DEFAULT_CHAR 0
RESOLUTION_X 75
RESOLUTION_Y 75
RESOLUTION 75
SPACING "P"
UNDERLINE_POSITION -2
UNDERLINE_THICKNESS 1
QUAD_WIDTH 16
CHARSET_REGISTRY "ISO10646"
CHARSET_ENCODING "-1"
CHARSET_COLLECTIONS "ASCII ISO8859-5 GB2312.1980 BIG5-0 KSC5601.1989-0 JISX0208.1997 ISO10646-1"
ENDPROPERTIES
CHARS 307
STARTCHAR U_0020
ENCODING 32
SWIDTH 333 0
DWIDTH 8 0
BBX 1 1 0 0
BITMAP
00
ENDCHAR
STARTCHAR exclam
ENCODING 33
SWIDTH 500 0
DWIDTH 8 0
BBX 1 14 3 -1
BITMAP
80
80
80
80
80
80
80
80
80
80
00
00
80
80
ENDCHAR
STARTCHAR quotedbl
ENCODING 34
SWIDTH 500 0
DWIDTH 8 0
BBX 4 6 2 5
BITMAP
90
90
90
90
90
90
ENDCHAR
STARTCHAR numbersign
ENCODING 35
SWIDTH 500 0
DWIDTH 8 0
BBX 8 12 0 0
BITMAP
12
12
12
7F
24
24
24
24
FE
48
48
48
ENDCHAR
STARTCHAR dollar
ENCODING 36
SWIDTH 500 0
DWIDTH 8 0
BBX 7 13 0 -1
BITMAP
10
7C
92
92
90
50
38
14
12
92
92
7C
10
ENDCHAR
STARTCHAR percent
ENCODING 37
SWIDTH 416 0
DWIDTH 8 0
BBX 8 13 0 -1
BITMAP
62
92
94
94
68
08
10
10
26
29
49
49
86
ENDCHAR
STARTCHAR ampersand
ENCODING 38
SWIDTH 500 0
DWIDTH 10 0
BBX 9 12 0 0
BITMAP
3800
4400
4400
4400
2800
1080
2900
4500
8200
8200
4500
3880
ENDCHAR
STARTCHAR quotesingle
ENCODING 39
SWIDTH 636 0
DWIDTH 8 0
BBX 2 3 3 10
BITMAP
C0
40
80
ENDCHAR
STARTCHAR parenleft
ENCODING 40
SWIDTH 389 0
DWIDTH 6 0
BBX 4 16 1 -4
BITMAP
10
20
40
40
80
80
80
80
80
80
80
80
40
40
20
10
ENDCHAR
STARTCHAR parenright
ENCODING 41
SWIDTH 389 0
DWIDTH 6 0
BBX 4 16 1 -4
BITMAP
80
40
20
20
10
10
10
10
10
10
10
10
20
20
40
80
ENDCHAR
STARTCHAR asterisk
ENCODING 42
SWIDTH 666 0
DWIDTH 8 0
BBX 7 9 0 2
BITMAP
10
10
92
54
38
54
92
10
10
ENDCHAR
STARTCHAR U_002B
ENCODING 43
SWIDTH 778 0
DWIDTH 13 0
BBX 11 11 1 0
BITMAP
0400
0400
0400
0400
0400
FFE0
0400
0400
0400
0400
0400
ENDCHAR
STARTCHAR comma
ENCODING 44
SWIDTH 500 0
DWIDTH 8 0
BBX 2 4 2 -2
BITMAP
C0
C0
40
80
ENDCHAR
STARTCHAR hyphen
ENCODING 45
SWIDTH 333 0
DWIDTH 5 0
BBX 4 1 0 3
BITMAP
F0
ENDCHAR
STARTCHAR period
ENCODING 46
SWIDTH 500 0
DWIDTH 8 0
BBX 2 2 2 -1
BITMAP
C0
C0
ENDCHAR
STARTCHAR slash
ENCODING 47
SWIDTH 500 0
DWIDTH 8 0
BBX 6 16 1 -4
BITMAP
04
04
08
08
08
10
10
10
20
20
20
40
40
40
80
80
ENDCHAR
STARTCHAR zero
ENCODING 48
SWIDTH 636 0
DWIDTH 8 0
BBX 7 11 1 0
BITMAP
38
44
82
82
82
82
82
82
82
44
38
ENDCHAR
STARTCHAR one
ENCODING 49
SWIDTH 500 0
DWIDTH 8 0
BBX 5 11 3 0
BITMAP
20
E0
20
20
20
20
20
20
20
20
F8
ENDCHAR
STARTCHAR two
ENCODING 50
SWIDTH 500 0
DWIDTH 8 0
BBX 7 11 1 0
BITMAP
38
44
82
02
04
08
10
20
40
80
FE
ENDCHAR
STARTCHAR three
ENCODING 51
SWIDTH 500 0
DWIDTH 8 0
BBX 7 11 1 0
BITMAP
78
84
02
02
04
38
04
02
02
84
78
ENDCHAR
STARTCHAR four
ENCODING 52
SWIDTH 500 0
DWIDTH 9 0
BBX 8 11 1 0
BITMAP
04
0C
14
24
44
44
84
FF
04
04
04
ENDCHAR
STARTCHAR five
ENCODING 53
SWIDTH 500 0
DWIDTH 8 0
BBX 7 11 1 0
BITMAP
FE
80
80
80
F8
04
02
02
02
84
78
ENDCHAR
STARTCHAR six
ENCODING 54
SWIDTH 500 0
DWIDTH 8 0
BBX 7 11 1 0
BITMAP
3C
40
80
80
B8
C4
82
82
82
44
38
ENDCHAR
STARTCHAR seven
ENCODING 55
SWIDTH 666 0
DWIDTH 8 0
BBX 7 11 1 0
BITMAP
FE
02
04
04
04
08
08
08
10
10
10
ENDCHAR
STARTCHAR eight
ENCODING 56
SWIDTH 684 0
DWIDTH 8 0
BBX 7 11 1 0
BITMAP
38
44
82
82
44
38
44
82
82
44
38
ENDCHAR
STARTCHAR nine
ENCODING 57
SWIDTH 686 0
DWIDTH 8 0
BBX 7 11 1 0
BITMAP
38
44
82
82
82
46
3A
02
02
04
78
ENDCHAR
STARTCHAR colon
ENCODING 58
SWIDTH 278 0
DWIDTH 4 0
BBX 1 7 2 0
BITMAP
80
00
00
00
00
00
80
ENDCHAR
STARTCHAR semicolon
ENCODING 59
SWIDTH 278 0
DWIDTH 4 0
BBX 1 8 2 -1
BITMAP
80
00
00
00
00
00
80
80
ENDCHAR
STARTCHAR less
ENCODING 60
SWIDTH 778 0
DWIDTH 12 0
BBX 9 10 2 -1
BITMAP
0080
0300
0C00
3000
C000
C000
3000
0800
0600
0180
ENDCHAR
STARTCHAR equal
ENCODING 61
SWIDTH 778 0
DWIDTH 12 0
BBX 10 4 1 2
BITMAP
FFC0
0000
0000
FFC0
ENDCHAR
STARTCHAR greater
ENCODING 62
SWIDTH 778 0
DWIDTH 12 0
BBX 10 10 1 -1
BITMAP
8000
6000
1800
0600
0180
00C0
0300
0C00
3000
C000
ENDCHAR
STARTCHAR question
ENCODING 63
SWIDTH 583 0
DWIDTH 8 0
BBX 6 12 1 0
BITMAP
30
48
84
84
08
10
10
10
00
00
10
10
ENDCHAR
STARTCHAR at
ENCODING 64
SWIDTH 333 0
DWIDTH 9 0
BBX 8 9 0 1
BITMAP
3C
42
B9
85
BD
A5
BD
42
3C
ENDCHAR
STARTCHAR A
ENCODING 65
SWIDTH 294 0
DWIDTH 10 0
BBX 9 11 0 0
BITMAP
0800
0800
1400
1400
2200
2200
7F00
4100
4100
8080
8080
ENDCHAR
STARTCHAR B
ENCODING 66
SWIDTH 500 0
DWIDTH 8 0
BBX 7 11 0 0
BITMAP
FC
82
82
82
84
F8
84
82
82
82
FC
ENDCHAR
STARTCHAR C
ENCODING 67
SWIDTH 557 0
DWIDTH 9 0
BBX 8 11 0 0
BITMAP
3E
41
40
80
80
80
80
80
40
41
3E
ENDCHAR
STARTCHAR D
ENCODING 68
SWIDTH 666 0
DWIDTH 9 0
BBX 8 11 0 0
BITMAP
FC
82
82
81
81
81
81
81
82
82
FC
ENDCHAR
STARTCHAR E
ENCODING 69
SWIDTH 583 0
DWIDTH 8 0
BBX 7 11 0 0
BITMAP
FE
80
80
80
80
FC
80
80
80
80
FE
ENDCHAR
STARTCHAR F
ENCODING 70
SWIDTH 666 0
DWIDTH 8 0
BBX 7 11 0 0
BITMAP
FE
80
80
80
80
FC
80
80
80
80
80
ENDCHAR
STARTCHAR G
ENCODING 71
SWIDTH 500 0
DWIDTH 10 0
BBX 9 11 0 0
BITMAP
3F00
4080
4000
8000
8000
8780
8080
8080
4080
4080
3F00
ENDCHAR
STARTCHAR H
ENCODING 72
SWIDTH 666 0
DWIDTH 9 0
BBX 8 11 0 0
BITMAP
81
81
81
81
81
FF
81
81
81
81
81
ENDCHAR
STARTCHAR I
ENCODING 73
SWIDTH 500 0
DWIDTH 4 0
BBX 3 11 0 0
BITMAP
E0
40
40
40
40
40
40
40
40
40
E0
ENDCHAR
STARTCHAR J
ENCODING 74
SWIDTH 500 0
DWIDTH 3 0
BBX 4 14 -2 -3
BITMAP
30
10
10
10
10
10
10
10
10
10
10
10
10
E0
ENDCHAR
STARTCHAR K
ENCODING 75
SWIDTH 610 0
DWIDTH 8 0
BBX 7 11 0 0
BITMAP
82
84
88
90
A0
C0
A0
90
88
84
82
ENDCHAR
STARTCHAR L
ENCODING 76
SWIDTH 583 0
DWIDTH 8 0
BBX 7 11 0 0
BITMAP
80
80
80
80
80
80
80
80
80
80
FE
ENDCHAR
STARTCHAR M
ENCODING 77
SWIDTH 666 0
DWIDTH 12 0
BBX 11 11 0 0
BITMAP
C060
C060
A0A0
A0A0
9120
9120
8A20
8A20
8420
8420
8020
ENDCHAR
STARTCHAR N
ENCODING 78
SWIDTH 833 0
DWIDTH 9 0
BBX 8 11 0 0
BITMAP
81
81
C1
A1
91
89
85
83
81
81
81
ENDCHAR
STARTCHAR O
ENCODING 79
SWIDTH 583 0
DWIDTH 11 0
BBX 10 11 0 0
BITMAP
3F00
4080
4080
8040
8040
8040
8040
8040
4080
4080
3F00
ENDCHAR
STARTCHAR P
ENCODING 80
SWIDTH 666 0
DWIDTH 8 0
BBX 7 11 0 0
BITMAP
FC
82
82
82
82
82
FC
80
80
80
80
ENDCHAR
STARTCHAR Q
ENCODING 81
SWIDTH 666 0
DWIDTH 10 0
BBX 9 13 0 -2
BITMAP
3E00
4100
4100
8080
8080
8080
8080
8080
4900
4500
3E00
0200
0100
ENDCHAR
STARTCHAR R
ENCODING 82
SWIDTH 500 0
DWIDTH 8 0
BBX 7 11 0 0
BITMAP
FC
82
82
82
84
F8
84
84
82
82
82
ENDCHAR
STARTCHAR S
ENCODING 83
SWIDTH 500 0
DWIDTH 8 0
BBX 7 11 0 0
BITMAP
3C
42
80
80
40
38
04
02
02
04
F8
ENDCHAR
STARTCHAR T
ENCODING 84
SWIDTH 500 0
DWIDTH 10 0
BBX 9 11 0 0
BITMAP
FF80
0800
0800
0800
0800
0800
0800
0800
0800
0800
0800
ENDCHAR
STARTCHAR U
ENCODING 85
SWIDTH 500 0
DWIDTH 9 0
BBX 8 11 0 0
BITMAP
81
81
81
81
81
81
81
81
81
42
3C
ENDCHAR
STARTCHAR V
ENCODING 86
SWIDTH 500 0
DWIDTH 10 0
BBX 9 11 0 0
BITMAP
8080
8080
4100
4100
4100
2200
2200
1400
1400
0800
0800
ENDCHAR
STARTCHAR W
ENCODING 87
SWIDTH 500 0
DWIDTH 14 0
BBX 13 11 0 0
BITMAP
8208
8208
8208
4510
4510
4510
28A0
28A0
28A0
1040
1040
ENDCHAR
STARTCHAR X
ENCODING 88
SWIDTH 500 0
DWIDTH 10 0
BBX 9 11 0 0
BITMAP
8080
4100
2200
1400
0800
0800
1400
1400
2200
4100
8080
ENDCHAR
STARTCHAR Y
ENCODING 89
SWIDTH 500 0
DWIDTH 8 0
BBX 7 11 0 0
BITMAP
82
82
44
44
28
28
10
10
10
10
10
ENDCHAR
STARTCHAR Z
ENCODING 90
SWIDTH 416 0
DWIDTH 9 0
BBX 8 11 0 0
BITMAP
FF
01
02
02
04
04
08
10
20
40
FF
ENDCHAR
STARTCHAR bracketleft
ENCODING 91
SWIDTH 500 0
DWIDTH 8 0
BBX 4 14 2 -1
BITMAP
F0
80
80
80
80
80
80
80
80
80
80
80
80
F0
ENDCHAR
STARTCHAR backslash
ENCODING 92
SWIDTH 500 0
DWIDTH 8 0
BBX 7 14 0 -1
BITMAP
80
80
40
40
20
20
10
10
08
08
04
04
02
02
ENDCHAR
STARTCHAR bracketright
ENCODING 93
SWIDTH 289 0
DWIDTH 5 0
BBX 3 16 0 -4
BITMAP
E0
20
20
20
20
20
20
20
20
20
20
20
20
20
20
E0
ENDCHAR
STARTCHAR asciicircum
ENCODING 94
SWIDTH 611 0
DWIDTH 10 0
BBX 5 3 2 7
BITMAP
20
50
88
ENDCHAR
STARTCHAR underscore
ENCODING 95
SWIDTH 778 0
DWIDTH 12 0
BBX 10 1 1 -4
BITMAP
FFC0
ENDCHAR
STARTCHAR grave
ENCODING 96
SWIDTH 500 0
DWIDTH 8 0
BBX 2 2 3 8
BITMAP
80
40
ENDCHAR
STARTCHAR a
ENCODING 97
SWIDTH 277 0
DWIDTH 8 0
BBX 7 8 0 0
BITMAP
78
84
04
7C
84
84
8C
72
ENDCHAR
STARTCHAR b
ENCODING 98
SWIDTH 416 0
DWIDTH 8 0
BBX 7 11 0 0
BITMAP
80
80
80
B8
C4
82
82
82
82
C4
B8
ENDCHAR
STARTCHAR c
ENCODING 99
SWIDTH 166 0
DWIDTH 7 0
BBX 6 8 0 0
BITMAP
38
44
80
80
80
80
44
38
ENDCHAR
STARTCHAR d
ENCODING 100
SWIDTH 833 0
DWIDTH 8 0
BBX 7 11 0 0
BITMAP
02
02
02
3A
46
82
82
82
82
46
3A
ENDCHAR
STARTCHAR e
ENCODING 101
SWIDTH 500 0
DWIDTH 8 0
BBX 7 8 0 0
BITMAP
38
44
82
FE
80
80
42
3C
ENDCHAR
STARTCHAR f
ENCODING 102
SWIDTH 500 0
DWIDTH 5 0
BBX 4 11 0 0
BITMAP
30
40
40
F0
40
40
40
40
40
40
40
ENDCHAR
STARTCHAR g
ENCODING 103
SWIDTH 500 0
DWIDTH 8 0
BBX 7 11 0 -3
BITMAP
3A
46
82
82
82
82
46
3A
02
44
38
ENDCHAR
STARTCHAR h
ENCODING 104
SWIDTH 500 0
DWIDTH 8 0
BBX 7 11 0 0
BITMAP
80
80
80
B8
C4
82
82
82
82
82
82
ENDCHAR
STARTCHAR i
ENCODING 105
SWIDTH 333 0
DWIDTH 4 0
BBX 2 11 0 0
BITMAP
40
40
00
C0
40
40
40
40
40
40
40
ENDCHAR
STARTCHAR j
ENCODING 106
SWIDTH 520 0
DWIDTH 3 0
BBX 3 14 -1 -3
BITMAP
20
20
00
60
20
20
20
20
20
20
20
20
20
C0
ENDCHAR
STARTCHAR k
ENCODING 107
SWIDTH 416 0
DWIDTH 8 0
BBX 7 11 0 0
BITMAP
80
80
80
84
88
90
E0
90
88
84
82
ENDCHAR
STARTCHAR l
ENCODING 108
SWIDTH 500 0
DWIDTH 4 0
BBX 1 11 1 0
BITMAP
80
80
80
80
80
80
80
80
80
80
80
ENDCHAR
STARTCHAR m
ENCODING 109
SWIDTH 500 0
DWIDTH 12 0
BBX 11 8 0 0
BITMAP
B9C0
C620
8420
8420
8420
8420
8420
8420
ENDCHAR
STARTCHAR n
ENCODING 110
SWIDTH 666 0
DWIDTH 7 0
BBX 6 8 0 0
BITMAP
B8
C4
84
84
84
84
84
84
ENDCHAR
STARTCHAR o
ENCODING 111
SWIDTH 500 0
DWIDTH 8 0
BBX 7 8 0 0
BITMAP
38
44
82
82
82
82
44
38
ENDCHAR
STARTCHAR p
ENCODING 112
SWIDTH 500 0
DWIDTH 9 0
BBX 8 11 0 -3
BITMAP
DC
62
41
41
41
41
62
5C
40
40
40
ENDCHAR
STARTCHAR q
ENCODING 113
SWIDTH 500 0
DWIDTH 9 0
BBX 8 11 0 -3
BITMAP
3B
46
82
82
82
82
46
3A
02
02
02
ENDCHAR
STARTCHAR r
ENCODING 114
SWIDTH 500 0
DWIDTH 6 0
BBX 5 8 0 0
BITMAP
B8
C0
80
80
80
80
80
80
ENDCHAR
STARTCHAR s
ENCODING 115
SWIDTH 416 0
DWIDTH 7 0
BBX 6 8 0 0
BITMAP
78
84
80
60
18
04
84
78
ENDCHAR
STARTCHAR t
ENCODING 116
SWIDTH 500 0
DWIDTH 6 0
BBX 5 10 0 0
BITMAP
40
40
F8
40
40
40
40
40
40
38
ENDCHAR
STARTCHAR u
ENCODING 117
SWIDTH 500 0
DWIDTH 8 0
BBX 7 8 0 0
BITMAP
C2
42
42
42
42
42
46
3A
ENDCHAR
STARTCHAR v
ENCODING 118
SWIDTH 500 0
DWIDTH 8 0
BBX 7 8 0 0
BITMAP
82
82
44
44
44
28
28
10
ENDCHAR
STARTCHAR w
ENCODING 119
SWIDTH 636 0
DWIDTH 12 0
BBX 11 8 0 0
BITMAP
8420
8420
8A20
4A40
5140
5140
2080
2080
ENDCHAR
STARTCHAR x
ENCODING 120
SWIDTH 500 0
DWIDTH 8 0
BBX 7 8 0 0
BITMAP
82
44
28
10
10
28
44
82
ENDCHAR
STARTCHAR y
ENCODING 121
SWIDTH 500 0
DWIDTH 8 0
BBX 7 11 0 -3
BITMAP
82
82
44
44
28
28
10
10
20
20
C0
ENDCHAR
STARTCHAR z
ENCODING 122
SWIDTH 500 0
DWIDTH 7 0
BBX 6 8 0 0
BITMAP
FC
04
08
10
20
40
80
FC
ENDCHAR
STARTCHAR braceleft
ENCODING 123
SWIDTH 500 0
DWIDTH 8 0
BBX 6 16 1 -4
BITMAP
1C
20
20
20
20
20
20
60
80
60
20
20
20
20
20
1C
ENDCHAR
STARTCHAR bar
ENCODING 124
SWIDTH 278 0
DWIDTH 4 0
BBX 1 16 2 -4
BITMAP
80
80
80
80
80
80
80
80
80
80
80
80
80
80
80
80
ENDCHAR
STARTCHAR braceright
ENCODING 125
SWIDTH 500 0
DWIDTH 8 0
BBX 6 16 1 -4
BITMAP
C0
20
20
20
20
20
20
10
0C
30
20
20
20
20
20
C0
ENDCHAR
STARTCHAR asciitilde
ENCODING 126
SWIDTH 611 0
DWIDTH 10 0
BBX 7 2 1 9
BITMAP
72
8C
ENDCHAR
STARTCHAR U_4E00
ENCODING 19968
SWIDTH 1000 0
DWIDTH 16 0
BBX 16 16 0 -2
BITMAP
0000
0000
0000
0000
0000
0000
0000
FFFE
0000
0000
0000
0000
0000
0000
0000
0000
ENDCHAR
STARTCHAR U_4E09
ENCODING 19977
SWIDTH 1000 0
DWIDTH 16 0
BBX 16 16 0 -2
BITMAP
0000
0000
7FFC
0000
0000
0000
0000
3FF8
0000
0000
0000
0000
0000
FFFE
0000
0000
ENDCHAR
STARTCHAR U_4E0A
ENCODING 19978
SWIDTH 1000 0
DWIDTH 16 0
BBX 16 16 0 -2
BITMAP
0200
0200
0200
0200
0200
0200
03F8
0200
0200
0200
0200
0200
0200
0200
FFFE
0000
ENDCHAR
STARTCHAR U_4E0B
ENCODING 19979
SWIDTH 1000 0
DWIDTH 16 0
BBX 16 16 0 -2
BITMAP
0000
FFFE
0200
0200
0200
0200
0240
0220
0210
0208
0208
0200
0200
0200
0200
0200
ENDCHAR
STARTCHAR U_4E0D
ENCODING 19981
SWIDTH 1000 0
DWIDTH 16 0
BBX 16 16 0 -2
BITMAP
0000
7FFC
0080
0080
0100
0100
0340
0520
0910
1108
2104
4104
8100
0100
0100
0100
ENDCHAR
STARTCHAR U_4E2D
ENCODING 20013
SWIDTH 1000 0
DWIDTH 16 0
BBX 16 16 0 -2
BITMAP
0100
0100
0100
0100
3FF8
2108
2108
2108
2108
2108
3FF8
2108
0100
0100
0100
0100
ENDCHAR
STARTCHAR U_4E3B
ENCODING 20027
SWIDTH 1000 0
DWIDTH 16 0
BBX 16 16 0 -2
BITMAP
0200
0100
0000
7FFC
0100
0100
0100
0100
3FF8
0100
0100
0100
0100
0100
FFFE
0000
ENDCHAR
STARTCHAR U_4E5D
ENCODING 20061
SWIDTH 1000 0
DWIDTH 16 0
BBX 16 16 0 -2
BITMAP
0400
0400
0400
0400
7FE0
0420
0420
0420
0820
0820
0820
1022
1022
2022
401E
8000
ENDCHAR
STARTCHAR U_4EBA
ENCODING 20154
SWIDTH 1000 0
DWIDTH 16 0
BBX 16 16 0 -2
BITMAP
0100
0100
0100
0100
0100
0100
0280
0280
0440
0440
0820
0820
1010
2008
4004
8002
ENDCHAR
STARTCHAR U_4EC5
ENCODING 20165
SWIDTH 1000 0
DWIDTH 16 0
BBX 16 16 0 -2
BITMAP
0800
0BFC
0904
1104
1104
3088
3088
5088
9050
1050
1020
1020
1050
1088
1104
1602
ENDCHAR
STARTCHAR U_4EEA
ENCODING 20202
SWIDTH 1000 0
DWIDTH 16 0
BBX 16 16 0 -2
BITMAP
0880
0848
0A48
1208
1208
3110
3110
5110
90A0
10A0
1040
1040
10A0
1110
1208
1406
ENDCHAR
STARTCHAR U_4EF0
ENCODING 20208
SWIDTH 1000 0
DWIDTH 16 0
BBX 16 16 0 -2
BITMAP
0800
0880
0B3C
1224
1224
3224
3224
5224
9224
1224
12B4
1328
1220
1020
1020
1020
ENDCHAR
STARTCHAR U_4EF6
ENCODING 20214
SWIDTH 1000 0
DWIDTH 16 0
BBX 16 16 0 -2
BITMAP
0820
0820
0920
1120
11FC
3220
3220
5420
9020
17FE
1020
1020
1020
1020
1020
1020
ENDCHAR
STARTCHAR U_4EFB
ENCODING 20219
SWIDTH 1000 0
DWIDTH 16 0
BBX 16 16 0 -2
BITMAP
0810
0878
0BC0
1040
1040
3040
3040
5FFE
9040
1040
1040
1040
1040
1040
17FC
1000
ENDCHAR
STARTCHAR U_4F20
ENCODING 20256
SWIDTH 1000 0
DWIDTH 16 0
BBX 16 16 0 -2
BITMAP
0840
0840
0840
13F8
1040
3080
37FE
5080
9100
13F8
1008
1110
10A0
1040
1020
1020
ENDCHAR
STARTCHAR U_4F4F
ENCODING 20303
SWIDTH 1000 0
DWIDTH 16 0
BBX 16 16 0 -2
BITMAP
0880
0840
0800
17FC
1040
3040
3040
5040
97FC
1040
1040
1040
1040
1040
1FFE
1000
ENDCHAR
STARTCHAR U_4FDD
ENCODING 20445
SWIDTH 1000 0
DWIDTH 16 0
BBX 16 16 0 -2
BITMAP
0800
0BF8
0A08
1208
1208
33F8
3040
5040
97FC
10E0
1150
1248
1444
1842
1040
1040
ENDCHAR
STARTCHAR U_4FEF
ENCODING 20463
SWIDTH 1000 0
DWIDTH 16 0
BBX 16 16 0 -2
BITMAP
1040
1020
17FE
2400
2488
6488
6508
A57E
2708
2548
2528
2528
2908
2908
3128
2110
ENDCHAR
STARTCHAR U_504F
ENCODING 20559
SWIDTH 1000 0
DWIDTH 16 0
BBX 16 16 0 -2
BITMAP
1080
1040
17FC
2404
2404
67FC
6400
A400
27FC
26A4
2AA4
2BFC
2AA4
2AA4
32A4
220C
ENDCHAR
STARTCHAR U_505C
ENCODING 20572
SWIDTH 1000 0
DWIDTH 16 0
BBX 16 16 0 -2
BITMAP
1080
1040
17FC
2000
23F8
6208
63F8
A000
2FFE
2802
23F8
2040
2040
2040
2140
2080
ENDCHAR
STARTCHAR U_5148
ENCODING 20808
SWIDTH 1000 0
DWIDTH 16 0
BBX 16 16 0 -2
BITMAP
0100
1100
1100
1FF8
2100
4100
0100
FFFE
0440
0440
0440
0840
0842
1042
203E
C000
ENDCHAR
STARTCHAR U_5149
ENCODING 20809
SWIDTH 1000 0
DWIDTH 16 0
BBX 16 16 0 -2
BITMAP
0100
2108
1108
0910
0920
0100
FFFE
0440
0440
0440
0440
0842
0842
1042
203E
C000
ENDCHAR
STARTCHAR U_516D
ENCODING 20845
SWIDTH 1000 0
DWIDTH 16 0
BBX 16 16 0 -2
BITMAP
0200
0100
0080
0080
0000
FFFE
0000
0000
0440
0420
0810
0808
1008
2004
4004
0000
ENDCHAR
STARTCHAR U_5185
ENCODING 20869
SWIDTH 1000 0
DWIDTH 16 0
BBX 16 16 0 -2
BITMAP
0100
0100
0100
7FFC
4104
4104
4104
4284
4244
4424
4814
5014
4004
4004
4014
4008
ENDCHAR
STARTCHAR U_51C6
ENCODING 20934
SWIDTH 1000 0
DWIDTH 16 0
BBX 16 16 0 -2
BITMAP
0140
4120
2120
23FE
0220
1620
1BFC
1220
2220
23FC
E220
2220
2220
23FE
2200
0200
ENDCHAR
STARTCHAR U_51FA
ENCODING 20986
SWIDTH 1000 0
DWIDTH 16 0
BBX 16 16 0 -2
BITMAP
0100
0100
2108
2108
2108
2108
3FF8
0108
0100
0100
4104
4104
4104
4104
7FFC
0004
ENDCHAR
STARTCHAR U_5207
ENCODING 20999
SWIDTH 1000 0
DWIDTH 16 0
BBX 16 16 0 -2
BITMAP
1000
1000
11FC
1044
1044
1E44
F044
1044
1044
1244
1444
1884
1084
0104
0228
0410
ENDCHAR
STARTCHAR U_521D
ENCODING 21021
SWIDTH 1000 0
DWIDTH 16 0
BBX 16 16 0 -2
BITMAP
2000
1000
01FC
FC44
0844
1044
1044
3444
5844
9444
1444
1084
1084
1104
1228
1410
ENDCHAR
STARTCHAR U_5236
ENCODING 21046
SWIDTH 1000 0
DWIDTH 16 0
BBX 16 16 0 -2
BITMAP
0404
2404
2404
3FA4
4424
0424
FFE4
0424
0424
3FA4
24A4
24A4
2684
2504
0414
0408
ENDCHAR
STARTCHAR U_5237
ENCODING 21047
SWIDTH 1000 0
DWIDTH 16 0
BBX 16 16 0 -2
BITMAP
0002
3FC2
2042
2042
3FD2
2212
2212
2212
3FD2
5252
5252
5252
9342
1282
020A
0204
ENDCHAR
STARTCHAR U_523B
ENCODING 21051
SWIDTH 1000 0
DWIDTH 16 0
BBX 16 16 0 -2
BITMAP
1004
0804
0004
FFA4
0824
1124
2124
7E24
0424
0924
1224
2424
CC04
1204
2114
C088
ENDCHAR
STARTCHAR U_524D
ENCODING 21069
SWIDTH 1000 0
DWIDTH 16 0
BBX 16 16 0 -2
BITMAP
1010
0810
0820
FFFE
0000
3E08
2248
2248
3E48
2248
2248
3E48
2208
2208
2A28
2410
ENDCHAR
STARTCHAR U_529B
ENCODING 21147
SWIDTH 1000 0
DWIDTH 16 0
BBX 16 16 0 -2
BITMAP
0200
0200
0200
0200
7FF8
0208
0208
0208
0208
0408
0408
0808
0808
1088
2050
4020
ENDCHAR
STARTCHAR U_52A0
ENCODING 21152
SWIDTH 1000 0
DWIDTH 16 0
BBX 16 16 0 -2
BITMAP
1000
1000
1000
107C
FE44
1244
1244
1244
1244
1244
1244
1244
2244
227C
4A44
8400
ENDCHAR
STARTCHAR U_52A8
ENCODING 21160
SWIDTH 1000 0
DWIDTH 16 0
BBX 16 16 0 -2
BITMAP
0040
0040
7C40
0040
01FC
0044
FE44
2044
2044
2084
4884
4484
FD04
4504
0228
0410
ENDCHAR
STARTCHAR U_52A9
ENCODING 21161
SWIDTH 1000 0
DWIDTH 16 0
BBX 16 16 0 -2
BITMAP
0020
7C20
4420
4420
44FC
7C24
4424
4424
7C24
4424
4424
4444
4E44
F084
0128
0210
ENDCHAR
STARTCHAR U_52BF
ENCODING 21183
SWIDTH 1000 0
DWIDTH 16 0
BBX 16 16 0 -2
BITMAP
0840
0840
7DF8
0848
0C48
19C8
684A
08AA
2886
1302
0200
7FF8
0408
0808
1050
6020
ENDCHAR
STARTCHAR U_5316
ENCODING 21270
SWIDTH 1000 0
DWIDTH 16 0
BBX 16 16 0 -2
BITMAP
0880
0880
0884
1088
1090
30A0
30C0
5080
9180
1280
1480
1082
1082
1082
107E
1000
ENDCHAR
STARTCHAR U_5355
ENCODING 21333
SWIDTH 1000 0
DWIDTH 16 0
BBX 16 16 0 -2
BITMAP
1010
0820
0440
3FF8
2108
2108
3FF8
2108
2108
3FF8
0100
0100
FFFE
0100
0100
0100
ENDCHAR
STARTCHAR U_538B
ENCODING 21387
SWIDTH 1000 0
DWIDTH 16 0
BBX 16 16 0 -2
BITMAP
0000
3FFE
2000
2080
2080
2080
2080
2FFC
2080
2080
2090
2088
2088
4080
5FFE
8000
ENDCHAR
STARTCHAR U_539F
ENCODING 21407
SWIDTH 1000 0
DWIDTH 16 0
BBX 16 16 0 -2
BITMAP
0000
3FFE
2080
2100
27F0
2410
2410
27F0
2410
2410
27F0
2080
2490
4888
5284
8100
ENDCHAR
STARTCHAR U_53C2
ENCODING 21442
SWIDTH 1000 0
DWIDTH 16 0
BBX 16 16 0 -2
BITMAP
0200
0440
0820
1FF0
0200
7FFC
0820
1090
2308
CC46
0180
0610
1820
00C0
0700
7800
ENDCHAR
STARTCHAR U_53D6
ENCODING 21462
SWIDTH 1000 0
DWIDTH 16 0
BBX 16 16 0 -2
BITMAP
0000
FF80
22FC
2244
3E44
2244
2244
3E44
2228
2228
27A8
FA10
4210
0228
0244
0282
ENDCHAR
STARTCHAR U_53EF
ENCODING 21487
SWIDTH 1000 0
DWIDTH 16 0
BBX 16 16 0 -2
BITMAP
0000
7FFE
0010
0010
1F10
1110
1110
1110
1110
1110
1F10
1110
0010
0010
0050
0020
ENDCHAR
STARTCHAR U_540E
ENCODING 21518
SWIDTH 1000 0
DWIDTH 16 0
BBX 16 16 0 -2
BITMAP
0010
00F8
1F00
1000
1000
1FFE
1000
1000
1000
17F8
1408
2408
2408
4408
87F8
0408
ENDCHAR
STARTCHAR U_5411
ENCODING 21521
SWIDTH 1000 0
DWIDTH 16 0
BBX 16 16 0 -2
BITMAP
0200
0400
0800
7FFC
4004
4004
47C4
4444
4444
4444
4444
47C4
4444
4004
4014
4008
ENDCHAR
STARTCHAR U_5668
ENCODING 22120
SWIDTH 1000 0
DWIDTH 16 0
BBX 16 16 0 -2
BITMAP
0000
3E7C
2244
2244
3E7C
0120
0110
FFFE
0280
0C60
3018
C006
3E7C
2244
2244
3E7C
ENDCHAR
STARTCHAR U_56DE
ENCODING 22238
SWIDTH 1000 0
DWIDTH 16 0
BBX 16 16 0 -2
BITMAP
0000
3FF8
2008
2008
27C8
2448
2448
2448
2448
2448
27C8
2008
2008
3FF8
2008
0000
ENDCHAR
STARTCHAR U_56FE
ENCODING 22270
SWIDTH 1000 0
DWIDTH 16 0
BBX 16 16 0 -2
BITMAP
0000
7FFC
4204
4204
47E4
4C44
5284
4104
46C4
783C
4304
4084
4604
4184
7FFC
4004
ENDCHAR
STARTCHAR U_5728
ENCODING 22312
SWIDTH 1000 0
DWIDTH 16 0
BBX 16 16 0 -2
BITMAP
0200
0200
0400
FFFE
0800
0840
1040
3040
57FC
9040
1040
1040
1040
1040
1FFE
1000
ENDCHAR
STARTCHAR U_5730
ENCODING 22320
SWIDTH 1000 0
DWIDTH 16 0
BBX 16 16 0 -2
BITMAP
1020
1020
1020
1120
112C
FD34
1164
13A4
1124
1134
1128
1D22
E122
4102
00FE
0000
ENDCHAR
STARTCHAR U_573A
ENCODING 22330
SWIDTH 1000 0
DWIDTH 16 0
BBX 16 16 0 -2
BITMAP
2000
23F0
2020
2040
2080
F900
23FC
2124
2124
2124
2224
3A44
E444
4884
0128
0210
ENDCHAR
STARTCHAR U_5907
ENCODING 22791
SWIDTH 1000 0
DWIDTH 16 0
BBX 16 16 0 -2
BITMAP
0400
0400
0FF0
1820
6440
0380
1C70
E00E
1FF0
1110
1110
1FF0
1110
1110
1FF0
1010
ENDCHAR
STARTCHAR U_590D
ENCODING 22797
SWIDTH 1000 0
DWIDTH 16 0
BBX 16 16 0 -2
BITMAP
1000
1000
1FFC
2000
5FF0
9010
1FF0
1010
1FF0
0400
0FF0
1820
6440
0380
1C70
E00E
ENDCHAR
STARTCHAR U_591A
ENCODING 22810
SWIDTH 1000 0
DWIDTH 16 0
BBX 16 16 0 -2
BITMAP
0200
0200
07F0
0820
3840
0480
0340
0C80
71F8
0208
0C10
3220
0140
0180
0E00
7000
ENDCHAR
STARTCHAR U_5931
ENCODING 22833
SWIDTH 1000 0
DWIDTH 16 0
BBX 16 16 0 -2
BITMAP
0100
1100
1100
1100
1FF8
2100
4100
0100
FFFE
0100
0280
0280
0440
0820
1010
600C
ENDCHAR
STARTCHAR U_59CB
ENCODING 22987
SWIDTH 1000 0
DWIDTH 16 0
BBX 16 16 0 -2
BITMAP
1020
1020
1020
1040
FC48
2484
25FE
2482
2400
48FC
2884
1084
2884
4484
80FC
0084
ENDCHAR
STARTCHAR U_59FF
ENCODING 23039
SWIDTH 1000 0
DWIDTH 16 0
BBX 16 16 0 -2
BITMAP
4080
2080
09FC
1204
2448
E040
20A0
2318
2C06
0400
FFFE
0820
1C40
0380
0C70
7008
ENDCHAR
STARTCHAR U_5B58
ENCODING 23384
SWIDTH 1000 0
DWIDTH 16 0
BBX 16 16 0 -2
BITMAP
0400
0400
FFFE
0800
0800
13F8
1010
3020
5040
97FE
1040
1040
1040
1040
1140
1080
ENDCHAR
STARTCHAR U_5B8C
ENCODING 23436
SWIDTH 1000 0
DWIDTH 16 0
BBX 16 16 0 -2
BITMAP
0200
0100
7FFE
4002
8004
1FF0
0000
0000
7FFC
0440
0440
0440
0844
0844
1044
603C
ENDCHAR
STARTCHAR U_5B9A
ENCODING 23450
SWIDTH 1000 0
DWIDTH 16 0
BBX 16 16 0 -2
BITMAP
0200
0100
7FFE
4002
8004
0000
3FF8
0100
0100
1100
11F8
1100
1100
2900
47FE
8000
ENDCHAR
STARTCHAR U_5BFC
ENCODING 23548
SWIDTH 1000 0
DWIDTH 16 0
BBX 16 16 0 -2
BITMAP
0000
3FF0
2010
2010
3FF0
2004
2004
1FFC
0020
0020
FFFE
0820
0420
0420
00A0
0040
ENDCHAR
STARTCHAR U_5C31
ENCODING 23601
SWIDTH 1000 0
DWIDTH 16 0
BBX 16 16 0 -2
BITMAP
2040
1050
FE48
0048
0040
7DFE
4450
4450
4450
7C50
1090
5490
9292
1112
510E
2200
ENDCHAR
STARTCHAR U_5C5E
ENCODING 23646
SWIDTH 1000 0
DWIDTH 16 0
BBX 16 16 0 -2
BITMAP
0000
3FFC
2004
3FFC
2000
2FF8
2080
2FF8
2888
2FF8
2080
3FFC
5094
57F4
9014
1008
ENDCHAR
STARTCHAR U_5DE5
ENCODING 24037
SWIDTH 1000 0
DWIDTH 16 0
BBX 16 16 0 -2
BITMAP
0000
0000
7FFC
0100
0100
0100
0100
0100
0100
0100
0100
0100
0100
FFFE
0000
0000
ENDCHAR
STARTCHAR U_5DF2
ENCODING 24050
SWIDTH 1000 0
DWIDTH 16 0
BBX 16 16 0 -2
BITMAP
0000
3FF0
0010
0010
0010
2010
2010
3FF0
2000
2000
2000
2004
2004
2004
1FFC
0000
ENDCHAR
STARTCHAR U_5E2E
ENCODING 24110
SWIDTH 1000 0
DWIDTH 16 0
BBX 16 16 0 -2
BITMAP
0800
087C
FF48
0850
7E48
0844
FF54
1048
2040
4100
BFF8
2108
2108
2128
2110
0100
ENDCHAR
STARTCHAR U_5E38
ENCODING 24120
SWIDTH 1000 0
DWIDTH 16 0
BBX 16 16 0 -2
BITMAP
0100
1110
0920
7FFE
4002
9FF4
1010
1FF0
0100
3FF8
2108
2108
2128
2110
0100
0100
ENDCHAR
STARTCHAR U_5E73
ENCODING 24179
SWIDTH 1000 0
DWIDTH 16 0
BBX 16 16 0 -2
BITMAP
0000
7FFC
0100
0100
1110
0910
0920
0100
FFFE
0100
0100
0100
0100
0100
0100
0100
ENDCHAR
STARTCHAR U_5EA6
ENCODING 24230
SWIDTH 1000 0
DWIDTH 16 0
BBX 16 16 0 -2
BITMAP
0100
0080
3FFE
2220
2220
3FFC
2220
2220
23E0
2000
2FF0
2410
4220
41C0
8630
380E
ENDCHAR
STARTCHAR U_5F00
ENCODING 24320
SWIDTH 1000 0
DWIDTH 16 0
BBX 16 16 0 -2
BITMAP
0000
7FFC
0820
0820
0820
0820
0820
FFFE
0820
0820
0820
0820
1020
1020
2020
4020
ENDCHAR
STARTCHAR U_5F02
ENCODING 24322
SWIDTH 1000 0
DWIDTH 16 0
BBX 16 16 0 -2
BITMAP
0000
3FF0
2010
2010
3FF0
2004
2004
1FFC
0000
0820
0820
FFFE
0820
1020
2020
4020
ENDCHAR
STARTCHAR U_5F0F
ENCODING 24335
SWIDTH 1000 0
DWIDTH 16 0
BBX 16 16 0 -2
BITMAP
0048
0044
0044
0040
FFFE
0040
0040
3E40
0840
0840
0820
0822
0F12
780A
2006
0002
ENDCHAR
STARTCHAR U_5F53
ENCODING 24403
SWIDTH 1000 0
DWIDTH 16 0
BBX 16 16 0 -2
BITMAP
0100
2108
1108
0910
0920
0100
7FF8
0008
0008
0008
3FF8
0008
0008
0008
7FF8
0008
ENDCHAR
STARTCHAR U_5F85
ENCODING 24453
SWIDTH 1000 0
DWIDTH 16 0
BBX 16 16 0 -2
BITMAP
0840
0840
1040
23FC
4840
0840
17FE
3010
5010
97FE
1010
1210
1110
1110
1050
1020
ENDCHAR
STARTCHAR U_6001
ENCODING 24577
SWIDTH 1000 0
DWIDTH 16 0
BBX 16 16 0 -2
BITMAP
0100
0100
7FFC
0100
0280
0440
0A20
3118
C006
0100
0888
4884
4812
4812
87F0
0000
ENDCHAR
STARTCHAR U_6025
ENCODING 24613
SWIDTH 1000 0
DWIDTH 16 0
BBX 16 16 0 -2
BITMAP
0800
0FE0
1020
2040
5FF8
0008
0008
1FF8
0008
0008
3FF8
0200
5104
5112
9012
0FF0
ENDCHAR
STARTCHAR U_6027
ENCODING 24615
SWIDTH 1000 0
DWIDTH 16 0
BBX 16 16 0 -2
BITMAP
1020
1020
1120
1120
19FC
5520
5220
5020
9020
11FC
1020
1020
1020
1020
13FE
1000
ENDCHAR
STARTCHAR U_603B
ENCODING 24635
SWIDTH 1000 0
DWIDTH 16 0
BBX 16 16 0 -2
BITMAP
1010
0820
0440
0000
1FF0
1010
1010
1010
1FF0
1010
0100
0884
4892
4812
87F0
0000
ENDCHAR
STARTCHAR U_6062
ENCODING 24674
SWIDTH 1000 0
DWIDTH 16 0
BBX 16 16 0 -2
BITMAP
1040
1040
1040
13FE
1880
5490
5090
5112
9152
1154
1290
1228
1428
1044
1084
1102
ENDCHAR
STARTCHAR U_60EF
ENCODING 24815
SWIDTH 1000 0
DWIDTH 16 0
BBX 16 16 0 -2
BITMAP
11FC
1124
1124
13FE
1924
5524
51FC
5000
91FC
1104
1124
1124
1124
1058
1084
1302
ENDCHAR
STARTCHAR U_610F
ENCODING 24847
SWIDTH 1000 0
DWIDTH 16 0
BBX 16 16 0 -2
BITMAP
0100
3FF8
0820
0440
FFFE
0000
1FF0
1010
1FF0
1010
1FF0
0200
5104
5112
9012
0FF0
ENDCHAR
STARTCHAR U_611F
ENCODING 24863
SWIDTH 1000 0
DWIDTH 16 0
BBX 16 16 0 -2
BITMAP
0028
0024
3FFE
2020
2FA4
2024
2FA8
2898
2892
4FAA
4046
8082
0100
4884
4812
87F2
ENDCHAR
STARTCHAR U_6162
ENCODING 24930
SWIDTH 1000 0
DWIDTH 16 0
BBX 16 16 0 -2
BITMAP
23F8
2208
23F8
3208
ABF8
A000
A7FC
A4A4
24A4
27FC
2000
23F8
2110
20E0
2318
2C06
ENDCHAR
STARTCHAR U_6210
ENCODING 25104
SWIDTH 1000 0
DWIDTH 16 0
BBX 16 16 0 -2
BITMAP
0050
0048
0040
3FFE
2040
2040
2044
3E44
2244
2228
2228
2212
2A32
444A
4086
8102
ENDCHAR
STARTCHAR U_626B
ENCODING 25195
SWIDTH 1000 0
DWIDTH 16 0
BBX 16 16 0 -2
BITMAP
1000
1000
13FC
1004
FC04
1004
1004
15FC
1804
3004
D004
1004
1004
13FC
5004
2000
ENDCHAR
STARTCHAR U_62E9
ENCODING 25321
SWIDTH 1000 0
DWIDTH 16 0
BBX 16 16 0 -2
BITMAP
2000
27F8
2208
2110
F0A0
2040
21B0
264E
3040
E3F8
2040
2040
27FC
2040
A040
4040
ENDCHAR
STARTCHAR U_6301
ENCODING 25345
SWIDTH 1000 0
DWIDTH 16 0
BBX 16 16 0 -2
BITMAP
1020
1020
1020
11FC
FC20
1020
13FE
1008
1808
33FE
D008
1088
1048
1008
5028
2010
ENDCHAR
STARTCHAR U_6309
ENCODING 25353
SWIDTH 1000 0
DWIDTH 16 0
BBX 16 16 0 -2
BITMAP
1040
1020
1020
13FE
FA02
1444
1040
1BFE
3088
D088
1108
10D0
1020
1050
5088
2304
ENDCHAR
STARTCHAR U_632F
ENCODING 25391
SWIDTH 1000 0
DWIDTH 16 0
BBX 16 16 0 -2
BITMAP
1000
13FC
1200
1200
FEF8
1200
1200
17FC
1AA0
32A4
D2A8
1290
1290
1488
54A4
28C2
ENDCHAR
STARTCHAR U_6362
ENCODING 25442
SWIDTH 1000 0
DWIDTH 16 0
BBX 16 16 0 -2
BITMAP
1080
1080
10F8
1108
FA10
15FC
1124
1924
3124
D124
17FE
1050
1050
1088
5104
2602
ENDCHAR
STARTCHAR U_636E
ENCODING 25454
SWIDTH 1000 0
DWIDTH 16 0
BBX 16 16 0 -2
BITMAP
11FE
1102
1102
FF02
11FE
1310
1510
19FF
1110
3110
51FE
9282
1282
1482
5482
28FE
ENDCHAR
STARTCHAR U_63A5
ENCODING 25509
SWIDTH 1000 0
DWIDTH 16 0
BBX 16 16 0 -2
BITMAP
1080
1040
13FC
1000
FD08
1090
17FE
1040
1840
37FE
D088
1108
1090
1060
5198
2604
ENDCHAR
STARTCHAR U_63A7
ENCODING 25511
SWIDTH 1000 0
DWIDTH 16 0
BBX 16 16 0 -2
BITMAP
1040
1020
1020
13FE
FA02
1494
1108
1A04
3000
D1FC
1020
1020
1020
1020
57FE
2000
ENDCHAR
STARTCHAR U_63CF
ENCODING 25551
SWIDTH 1000 0
DWIDTH 16 0
BBX 16 16 0 -2
BITMAP
1088
1088
13FE
1088
FC88
1000
11FC
1524
1924
3124
D1FC
1124
1124
1124
51FC
2104
ENDCHAR
STARTCHAR U_6536
ENCODING 25910
SWIDTH 1000 0
DWIDTH 16 0
BBX 16 16 0 -2
BITMAP
0840
0840
4840
4880
48FE
4908
4A88
4888
4888
5850
6850
4820
0850
0888
0904
0A02
ENDCHAR
STARTCHAR U_653E
ENCODING 25918
SWIDTH 1000 0
DWIDTH 16 0
BBX 16 16 0 -2
BITMAP
2040
1040
0040
FE80
20FE
2108
3E88
2488
2488
2450
2450
2420
4450
5488
8904
0202
ENDCHAR
STARTCHAR U_6570
ENCODING 25968
SWIDTH 1000 0
DWIDTH 16 0
BBX 16 16 0 -2
BITMAP
0820
4920
2A20
083E
FF44
2A44
4944
88A4
1028
FE28
2210
4210
6428
1828
3444
C282
ENDCHAR
STARTCHAR U_6574
ENCODING 25972
SWIDTH 1000 0
DWIDTH 16 0
BBX 16 16 0 -2
BITMAP
0820
0820
FFBE
0844
7FA4
4924
7F28
2A10
4928
8846
0000
7FFC
0100
11F8
1100
FFFE
ENDCHAR
STARTCHAR U_65AD
ENCODING 26029
SWIDTH 1000 0
DWIDTH 16 0
BBX 16 16 0 -2
BITMAP
0400
0404
5578
4E40
4440
7F40
447E
4E48
5548
6548
4448
4448
4048
7F88
0088
0108
ENDCHAR
STARTCHAR U_65B0
ENCODING 26032
SWIDTH 1000 0
DWIDTH 16 0
BBX 16 16 0 -2
BITMAP
1000
0804
7F78
0040
2240
1440
FF7E
0848
0848
7F48
0848
2A48
4948
8888
2888
1108
ENDCHAR
STARTCHAR U_65B9
ENCODING 26041
SWIDTH 1000 0
DWIDTH 16 0
BBX 16 16 0 -2
BITMAP
0200
0100
0100
FFFE
0400
0400
0400
07F0
0410
0410
0410
0810
0810
1010
20A0
4040
ENDCHAR
STARTCHAR U_65E0
ENCODING 26080
SWIDTH 1000 0
DWIDTH 16 0
BBX 16 16 0 -2
BITMAP
0000
3FF0
0200
0200
0200
0200
7FFC
0480
0480
0480
0880
0880
1084
2084
407C
8000
ENDCHAR
STARTCHAR U_660E
ENCODING 26126
SWIDTH 1000 0
DWIDTH 16 0
BBX 16 16 0 -2
BITMAP
0000
00FC
7C84
4484
4484
44FC
7C84
4484
4484
44FC
7C84
4484
0104
0104
0214
0408
ENDCHAR
STARTCHAR U_663E
ENCODING 26174
SWIDTH 1000 0
DWIDTH 16 0
BBX 16 16 0 -2
BITMAP
0000
1FF0
1010
1010
1FF0
1010
1010
1FF0
0440
4444
2444
1448
1450
0440
FFFE
0000
ENDCHAR
STARTCHAR U_6682
ENCODING 26242
SWIDTH 1000 0
DWIDTH 16 0
BBX 16 16 0 -2
BITMAP
100C
FEF0
2080
4880
7EFE
0888
0E88
F908
4A08
1FF8
1010
1010
1FF0
1010
1010
1FF0
ENDCHAR
STARTCHAR U_66F2
ENCODING 26354
SWIDTH 1000 0
DWIDTH 16 0
BBX 16 16 0 -2
BITMAP
0440
0440
0440
0440
7FFC
4444
4444
4444
4444
7FFC
4444
4444
4444
4444
7FFC
4004
ENDCHAR
STARTCHAR U_671D
ENCODING 26397
SWIDTH 1000 0
DWIDTH 16 0
BBX 16 16 0 -2
BITMAP
0800
083E
FFA2
0822
7F22
413E
7F22
4122
7F22
493E
0822
FFA2
0842
0842
088A
0904
ENDCHAR
STARTCHAR U_671F
ENCODING 26399
SWIDTH 1000 0
DWIDTH 16 0
BBX 16 16 0 -2
BITMAP
2200
227C
7F44
2244
2244
3E7C
2244
2244
3E44
227C
2244
FF44
0484
2284
4114
8208
ENDCHAR
STARTCHAR U_672A
ENCODING 26410
SWIDTH 1000 0
DWIDTH 16 0
BBX 16 16 0 -2
BITMAP
0100
0100
0100
3FF8
0100
0100
0100
FFFE
0380
0540
0920
1110
2108
C106
0100
0100
ENDCHAR
STARTCHAR U_673A
ENCODING 26426
SWIDTH 1000 0
DWIDTH 16 0
BBX 16 16 0 -2
BITMAP
1000
11F0
1110
1110
FD10
1110
3110
3910
5510
5510
9110
1112
1112
1212
120E
1400
ENDCHAR
STARTCHAR U_67E5
ENCODING 26597
SWIDTH 1000 0
DWIDTH 16 0
BBX 16 16 0 -2
BITMAP
0100
0100
FFFE
0540
0920
1110
3FF8
D016
1010
1FF0
1010
1010
1FF0
0000
FFFE
0000
ENDCHAR
STARTCHAR U_6821
ENCODING 26657
SWIDTH 1000 0
DWIDTH 16 0
BBX 16 16 0 -2
BITMAP
1040
1020
1020
11FE
FC00
1088
3104
3A02
5488
5088
9050
1050
1020
1050
1088
1306
ENDCHAR
STARTCHAR U_6837
ENCODING 26679
SWIDTH 1000 0
DWIDTH 16 0
BBX 16 16 0 -2
BITMAP
1104
1084
1088
1000
FBFE
1020
3020
39FC
5420
5020
93FE
1020
1020
1020
1020
1020
ENDCHAR
STARTCHAR U_68C0
ENCODING 26816
SWIDTH 1000 0
DWIDTH 16 0
BBX 16 16 0 -2
BITMAP
1040
1040
10A0
10A0
FD10
1208
35F6
3800
5488
5048
9248
1150
1110
1020
17FE
1000
ENDCHAR
STARTCHAR U_6A21
ENCODING 27169
SWIDTH 1000 0
DWIDTH 16 0
BBX 16 16 0 -2
BITMAP
1110
1110
17FC
1110
FC00
13F8
3208
3BF8
5608
53F8
9040
17FC
10A0
1110
1208
1406
ENDCHAR
STARTCHAR U_6A2A
ENCODING 27178
SWIDTH 1000 0
DWIDTH 16 0
BBX 16 16 0 -2
BITMAP
1110
1110
13FC
FD10
1110
17FE
3040
3BF8
5648
53F8
9248
13F8
1000
1110
1208
1404
ENDCHAR
STARTCHAR U_6B62
ENCODING 27490
SWIDTH 1000 0
DWIDTH 16 0
BBX 16 16 0 -2
BITMAP
0100
0100
0100
0100
1100
1100
11F8
1100
1100
1100
1100
1100
1100
1100
FFFE
0000
ENDCHAR
STARTCHAR U_6B63
ENCODING 27491
SWIDTH 1000 0
DWIDTH 16 0
BBX 16 16 0 -2
BITMAP
0000
7FFC
0100
0100
0100
0100
1100
11F8
1100
1100
1100
1100
1100
1100
FFFE
0000
ENDCHAR
STARTCHAR U_6B64
ENCODING 27492
SWIDTH 1000 0
DWIDTH 16 0
BBX 16 16 0 -2
BITMAP
0440
0440
0440
2444
2448
2750
2460
2440
2440
2440
2440
2442
2F42
F042
403E
0000
ENDCHAR
STARTCHAR U_6C14
ENCODING 27668
SWIDTH 1000 0
DWIDTH 16 0
BBX 16 16 0 -2
BITMAP
1000
1000
3FFC
2000
4FF0
8000
3FF0
0010
0010
0010
0010
0010
000A
000A
0006
0002
ENDCHAR
STARTCHAR U_6C34
ENCODING 27700
SWIDTH 1000 0
DWIDTH 16 0
BBX 16 16 0 -2
BITMAP
0100
0100
0100
0108
0108
7D90
05A0
0940
0940
1120
1110
2108
4106
8100
0500
0200
ENDCHAR
STARTCHAR U_6CD5
ENCODING 27861
SWIDTH 1000 0
DWIDTH 16 0
BBX 16 16 0 -2
BITMAP
0040
2040
1040
1040
87FC
4040
4040
1040
1FFE
2040
E080
2100
2210
2408
2FFC
0404
ENDCHAR
STARTCHAR U_6D41
ENCODING 27969
SWIDTH 1000 0
DWIDTH 16 0
BBX 16 16 0 -2
BITMAP
0080
2040
17FE
1080
8110
4208
47FC
1004
1000
2248
E248
2248
2248
224A
244A
0846
ENDCHAR
STARTCHAR U_6D4B
ENCODING 27979
SWIDTH 1000 0
DWIDTH 16 0
BBX 16 16 0 -2
BITMAP
0004
27C4
1444
1454
8554
4554
4554
1554
1554
2554
E554
2104
2284
2244
2414
0808
ENDCHAR
STARTCHAR U_6D88
ENCODING 28040
SWIDTH 1000 0
DWIDTH 16 0
BBX 16 16 0 -2
BITMAP
0040
2248
1148
1150
8040
43F8
4A08
0A08
13F8
1208
E208
23F8
2208
2208
2228
0210
ENDCHAR
STARTCHAR U_6E29
ENCODING 28201
SWIDTH 1000 0
DWIDTH 16 0
BBX 16 16 0 -2
BITMAP
0000
23F8
1208
1208
83F8
4208
4208
13F8
1000
27FC
E4A4
24A4
24A4
24A4
2FFE
0000
ENDCHAR
STARTCHAR U_6EDA
ENCODING 28378
SWIDTH 1000 0
DWIDTH 16 0
BBX 16 16 0 -2
BITMAP
0080
2040
17FC
1110
8248
4484
4120
13F0
1010
2088
E150
2320
2510
2948
2186
0100
ENDCHAR
STARTCHAR U_70B9
ENCODING 28857
SWIDTH 1000 0
DWIDTH 16 0
BBX 16 16 0 -2
BITMAP
0200
0200
0200
03FC
0200
0200
3FF0
2010
2010
2010
3FF0
0000
2488
2244
4244
8004
ENDCHAR
STARTCHAR U_72B6
ENCODING 29366
SWIDTH 1000 0
DWIDTH 16 0
BBX 16 16 0 -2
BITMAP
0840
0848
0844
4844
2840
2FFE
0840
0840
1840
28A0
C8A0
0890
0910
0908
0A04
0C02
ENDCHAR
STARTCHAR U_7406
ENCODING 29702
SWIDTH 1000 0
DWIDTH 16 0
BBX 16 16 0 -2
BITMAP
0000
01FC
FD24
1124
11FC
1124
1124
7DFC
1020
1020
11FC
1020
1C20
E020
43FE
0000
ENDCHAR
STARTCHAR U_7528
ENCODING 29992
SWIDTH 1000 0
DWIDTH 16 0
BBX 16 16 0 -2
BITMAP
0000
3FF8
2108
2108
2108
3FF8
2108
2108
2108
3FF8
2108
2108
2108
4108
4128
8010
ENDCHAR
STARTCHAR U_767D
ENCODING 30333
SWIDTH 1000 0
DWIDTH 16 0
BBX 16 16 0 -2
BITMAP
0100
0200
0400
3FF8
2008
2008
2008
2008
3FF8
2008
2008
2008
2008
2008
3FF8
2008
ENDCHAR
STARTCHAR U_770B
ENCODING 30475
SWIDTH 1000 0
DWIDTH 16 0
BBX 16 16 0 -2
BITMAP
00F8
7F00
0100
3FF8
0200
FFFE
0400
0800
1FF0
2810
4FF0
8810
0FF0
0810
0FF0
0810
ENDCHAR
STARTCHAR U_77ED
ENCODING 30701
SWIDTH 1000 0
DWIDTH 16 0
BBX 16 16 0 -2
BITMAP
2000
21FE
3C00
5000
90FC
1084
1084
FE84
10FC
1000
1084
2844
2448
4400
41FE
8000
ENDCHAR
STARTCHAR U_786E
ENCODING 30830
SWIDTH 1000 0
DWIDTH 16 0
BBX 16 16 0 -2
BITMAP
0040
0040
FC7C
1084
1108
22FE
3C92
6492
64FE
A492
2492
24FE
3C92
2512
210A
0204
ENDCHAR
STARTCHAR U_78C1
ENCODING 30913
SWIDTH 1000 0
DWIDTH 16 0
BBX 16 16 0 -2
BITMAP
0108
0088
F090
27FE
2108
4108
7210
D294
54A4
5738
5108
5210
7210
54A4
07BC
0084
ENDCHAR
STARTCHAR U_793A
ENCODING 31034
SWIDTH 1000 0
DWIDTH 16 0
BBX 16 16 0 -2
BITMAP
0000
3FF8
0000
0000
0000
0000
FFFE
0100
0100
1110
1108
2104
4102
8102
0500
0200
ENDCHAR
STARTCHAR U_7A7A
ENCODING 31354
SWIDTH 1000 0
DWIDTH 16 0
BBX 16 16 0 -2
BITMAP
0200
0100
7FFE
4002
8824
1010
2008
0000
1FF0
0100
0100
0100
0100
0100
7FFC
0000
ENDCHAR
STARTCHAR U_7B49
ENCODING 31561
SWIDTH 1000 0
DWIDTH 16 0
BBX 16 16 0 -2
BITMAP
2040
3F7E
4890
8508
0100
3FF8
0100
0100
FFFE
0000
0020
7FFC
0820
0420
04A0
0040
ENDCHAR
STARTCHAR U_7BA1
ENCODING 31649
SWIDTH 1000 0
DWIDTH 16 0
BBX 16 16 0 -2
BITMAP
2040
3F7E
4890
8508
0100
7FFE
4002
9FE4
1020
1FE0
1000
1FF0
1010
1010
1FF0
1010
ENDCHAR
STARTCHAR U_7CFB
ENCODING 31995
SWIDTH 1000 0
DWIDTH 16 0
BBX 16 16 0 -2
BITMAP
00F8
3F00
0400
0820
1040
3F80
0100
0610
1808
7FFC
0104
0920
1110
2108
4504
0200
ENDCHAR
STARTCHAR U_7D27
ENCODING 32039
SWIDTH 1000 0
DWIDTH 16 0
BBX 16 16 0 -2
BITMAP
0400
25FC
2488
2450
2420
2450
028C
0420
1FC0
0180
0610
3FF8
0108
1120
2510
4208
ENDCHAR
STARTCHAR U_7EBF
ENCODING 32447
SWIDTH 1000 0
DWIDTH 16 0
BBX 16 16 0 -2
BITMAP
1050
1048
2040
245C
45E0
F840
105E
23E0
4044
FC48
4030
0022
1C52
E08A
4306
0002
ENDCHAR
STARTCHAR U_7EDF
ENCODING 32479
SWIDTH 1000 0
DWIDTH 16 0
BBX 16 16 0 -2
BITMAP
1040
1020
2020
23FE
4840
F888
1104
23FE
4092
F890
4090
0090
1912
E112
420E
0400
ENDCHAR
STARTCHAR U_7EE7
ENCODING 32487
SWIDTH 1000 0
DWIDTH 16 0
BBX 16 16 0 -2
BITMAP
1020
1220
2220
2324
4AA8
F220
13FC
2220
4270
FAA8
4324
0220
1A20
E220
43FE
0000
ENDCHAR
STARTCHAR U_7EEA
ENCODING 32490
SWIDTH 1000 0
DWIDTH 16 0
BBX 16 16 0 -2
BITMAP
1040
1044
23F4
2048
4850
F7FE
1040
2080
41F8
FB08
4508
01F8
1908
E108
41F8
0108
ENDCHAR
STARTCHAR U_7EED
ENCODING 32493
SWIDTH 1000 0
DWIDTH 16 0
BBX 16 16 0 -2
BITMAP
1020
1020
21FC
2420
4420
FBFE
1002
2094
4050
FD10
4090
03FE
1C28
E044
4082
0302
ENDCHAR
STARTCHAR U_7EF4
ENCODING 32500
SWIDTH 1000 0
DWIDTH 16 0
BBX 16 16 0 -2
BITMAP
10A0
1090
2080
25FE
4510
FB10
15FC
2110
4110
FDFC
4110
0110
1D10
E1FE
4100
0100
ENDCHAR
STARTCHAR U_7F6E
ENCODING 32622
SWIDTH 1000 0
DWIDTH 16 0
BBX 16 16 0 -2
BITMAP
7FFC
4444
4444
7FFC
0100
FFFE
0200
1FF0
1010
1FF0
1010
1FF0
1010
1FF0
1010
FFFE
ENDCHAR
STARTCHAR U_7FFB
ENCODING 32763
SWIDTH 1000 0
DWIDTH 16 0
BBX 16 16 0 -2
BITMAP
0E00
F1DC
9244
5444
FF54
38CC
5444
8244
7C4C
54D4
5564
7C44
5444
5444
7D54
4488
ENDCHAR
STARTCHAR U_8054
ENCODING 32852
SWIDTH 1000 0
DWIDTH 16 0
BBX 16 16 0 -2
BITMAP
0088
FC48
4850
4800
79FC
4820
4820
7820
4BFE
4820
4C50
7850
C888
0888
0904
0A02
ENDCHAR
STARTCHAR U_80CC
ENCODING 32972
SWIDTH 1000 0
DWIDTH 16 0
BBX 16 16 0 -2
BITMAP
0480
0498
7CE0
0484
1C84
E47C
4000
1FF0
1010
1FF0
1010
1FF0
1010
1010
1050
1020
ENDCHAR
STARTCHAR U_80FD
ENCODING 33021
SWIDTH 1000 0
DWIDTH 16 0
BBX 16 16 0 -2
BITMAP
1040
2444
4248
FF70
0140
0042
7E42
423E
4200
7E44
4248
4270
7E40
4242
4A42
443E
ENDCHAR
STARTCHAR U_822A
ENCODING 33322
SWIDTH 1000 0
DWIDTH 16 0
BBX 16 16 0 -2
BITMAP
1040
2020
7C00
45FC
6400
5400
54F0
FC90
4490
6490
5490
5492
4492
4512
550E
8A00
ENDCHAR
STARTCHAR U_83DC
ENCODING 33756
SWIDTH 1000 0
DWIDTH 16 0
BBX 16 16 0 -2
BITMAP
0820
0820
FFFE
0820
0010
00F8
3F00
1110
0820
0100
7FFC
0540
0920
3118
C106
0100
ENDCHAR
STARTCHAR U_87BA
ENCODING 34746
SWIDTH 1000 0
DWIDTH 16 0
BBX 16 16 0 -2
BITMAP
1000
11FC
1124
7DFC
5524
55FC
5440
5488
7DF0
5020
1044
17FE
1C22
E524
4222
0060
ENDCHAR
STARTCHAR U_884C
ENCODING 34892
SWIDTH 1000 0
DWIDTH 16 0
BBX 16 16 0 -2
BITMAP
0800
09FC
1000
2000
4800
0800
13FE
3020
5020
9020
1020
1020
1020
1020
10A0
1040
ENDCHAR
STARTCHAR U_8865
ENCODING 34917
SWIDTH 1000 0
DWIDTH 16 0
BBX 16 16 0 -2
BITMAP
1040
0840
0040
7E40
0240
0460
0850
1A48
2C44
4A44
0A40
0840
0840
0840
0840
0840
ENDCHAR
STARTCHAR U_8868
ENCODING 34920
SWIDTH 1000 0
DWIDTH 16 0
BBX 16 16 0 -2
BITMAP
0100
0100
7FFC
0100
0100
3FF8
0100
0100
FFFE
0500
0888
1850
2820
C918
0A06
0C00
ENDCHAR
STARTCHAR U_89C6
ENCODING 35270
SWIDTH 1000 0
DWIDTH 16 0
BBX 16 16 0 -2
BITMAP
2000
11FC
1104
F904
0924
1124
1124
3924
5524
9554
1050
1090
1090
1112
1212
140E
ENDCHAR
STARTCHAR U_89C8
ENCODING 35272
SWIDTH 1000 0
DWIDTH 16 0
BBX 16 16 0 -2
BITMAP
0440
2440
247C
2490
2508
0400
1FF0
1010
1110
1110
1110
1290
0280
0484
1884
607C
ENDCHAR
STARTCHAR U_89E3
ENCODING 35299
SWIDTH 1000 0
DWIDTH 16 0
BBX 16 16 0 -2
BITMAP
1000
10FC
3C24
2424
4854
BE88
2A10
2A50
3E7C
2A90
2A10
3EFE
2A10
4A10
4210
8610
ENDCHAR
STARTCHAR U_8BA1
ENCODING 35745
SWIDTH 1000 0
DWIDTH 16 0
BBX 16 16 0 -2
BITMAP
0040
2040
1040
1040
0040
0040
F7FE
1040
1040
1040
1040
1040
1440
1840
1040
0040
ENDCHAR
STARTCHAR U_8BA4
ENCODING 35748
SWIDTH 1000 0
DWIDTH 16 0
BBX 16 16 0 -2
BITMAP
0040
2040
1040
1040
0040
0040
F040
1040
10A0
10A0
10A0
1510
1910
1208
0404
0802
ENDCHAR
STARTCHAR U_8BBE
ENCODING 35774
SWIDTH 1000 0
DWIDTH 16 0
BBX 16 16 0 -2
BITMAP
0000
21F0
1110
1110
0110
020E
F400
13F8
1108
1110
1090
14A0
1840
10A0
0318
0C06
ENDCHAR
STARTCHAR U_8BCA
ENCODING 35786
SWIDTH 1000 0
DWIDTH 16 0
BBX 16 16 0 -2
BITMAP
0040
4040
20A0
2110
0208
0426
E040
2080
2310
2020
2040
2888
3310
2020
00C0
0700
ENDCHAR
STARTCHAR U_8BD5
ENCODING 35797
SWIDTH 1000 0
DWIDTH 16 0
BBX 16 16 0 -2
BITMAP
0028
2024
1024
1020
07FE
0020
F020
17E0
1120
1110
1110
1510
19CA
170A
0206
0002
ENDCHAR
STARTCHAR U_8BEF
ENCODING 35823
SWIDTH 1000 0
DWIDTH 16 0
BBX 16 16 0 -2
BITMAP
0000
43F8
2208
2208
03F8
0000
E7FC
2040
2040
2FFE
2040
20A0
28A0
3110
2208
0406
ENDCHAR
STARTCHAR U_8BF4
ENCODING 35828
SWIDTH 1000 0
DWIDTH 16 0
BBX 16 16 0 -2
BITMAP
0208
2108
1110
1020
03F8
0208
F208
1208
13F8
10A0
10A0
1520
1922
1222
041E
0800
ENDCHAR
STARTCHAR U_8BF7
ENCODING 35831
SWIDTH 1000 0
DWIDTH 16 0
BBX 16 16 0 -2
BITMAP
0040
4040
27FC
2040
03F8
0040
E7FE
2000
23F8
2208
23F8
2208
2BF8
3208
2228
0210
ENDCHAR
STARTCHAR U_8C03
ENCODING 35843
SWIDTH 1000 0
DWIDTH 16 0
BBX 16 16 0 -2
BITMAP
0000
47FC
2444
2444
05F4
0444
E444
27FC
2404
25F4
2514
2D14
35F4
2404
0414
0808
ENDCHAR
STARTCHAR U_8D25
ENCODING 36133
SWIDTH 1000 0
DWIDTH 16 0
BBX 16 16 0 -2
BITMAP
0040
7C40
4440
5480
54FE
5508
5688
5488
5488
5450
5450
1020
2850
2488
4504
8202
ENDCHAR
STARTCHAR U_8D28
ENCODING 36136
SWIDTH 1000 0
DWIDTH 16 0
BBX 16 16 0 -2
BITMAP
007C
3FC0
2040
2040
3FFE
2040
2040
27FC
2404
2444
2444
2444
24B4
4108
4604
9802
ENDCHAR
STARTCHAR U_8D8B
ENCODING 36235
SWIDTH 1000 0
DWIDTH 16 0
BBX 16 16 0 -2
BITMAP
0840
0840
0878
7E88
0910
08FC
FE04
0804
28FC
2804
2E04
29FC
2800
5800
4FFE
8000
ENDCHAR
STARTCHAR U_8DDD
ENCODING 36317
SWIDTH 1000 0
DWIDTH 16 0
BBX 16 16 0 -2
BITMAP
0000
7DFE
4500
4500
4500
7DFC
1104
1104
5D04
5104
51FC
5100
5D00
E100
01FE
0000
ENDCHAR
STARTCHAR U_8F6C
ENCODING 36716
SWIDTH 1000 0
DWIDTH 16 0
BBX 16 16 0 -2
BITMAP
2020
2020
2020
FDFC
4020
5040
93FE
FC40
1080
11FC
1C04
F088
5050
1020
1010
1010
ENDCHAR
STARTCHAR U_8F74
ENCODING 36724
SWIDTH 1000 0
DWIDTH 16 0
BBX 16 16 0 -2
BITMAP
2020
2020
2020
FC20
41FC
5124
9124
FD24
1124
11FC
1D24
F124
5124
1124
11FC
1104
ENDCHAR
STARTCHAR U_8FC7
ENCODING 36807
SWIDTH 1000 0
DWIDTH 16 0
BBX 16 16 0 -2
BITMAP
0010
2010
1010
17FE
0010
0010
F210
1110
1110
1010
1010
1050
1020
2800
47FE
0000
ENDCHAR
STARTCHAR U_8FD0
ENCODING 36816
SWIDTH 1000 0
DWIDTH 16 0
BBX 16 16 0 -2
BITMAP
0000
23F8
1000
1000
0000
07FC
F040
1080
1110
1208
17FC
1204
1000
2800
47FE
0000
ENDCHAR
STARTCHAR U_8FD4
ENCODING 36820
SWIDTH 1000 0
DWIDTH 16 0
BBX 16 16 0 -2
BITMAP
0008
203C
13C0
1200
0200
03FC
F204
1288
1250
1220
1250
1488
1504
2800
47FE
0000
ENDCHAR
STARTCHAR U_8FDB
ENCODING 36827
SWIDTH 1000 0
DWIDTH 16 0
BBX 16 16 0 -2
BITMAP
0090
2090
1090
13FC
0090
0090
F090
17FE
1090
1090
1110
1110
1210
2800
47FE
0000
ENDCHAR
STARTCHAR U_8FDE
ENCODING 36830
SWIDTH 1000 0
DWIDTH 16 0
BBX 16 16 0 -2
BITMAP
0040
2040
17FE
1080
00A0
0120
F3FC
1020
1020
1020
17FE
1020
1020
2820
47FE
0000
ENDCHAR
STARTCHAR U_9000
ENCODING 36864
SWIDTH 1000 0
DWIDTH 16 0
BBX 16 16 0 -2
BITMAP
03F8
2208
1208
13F8
0208
0208
F3F8
1244
1228
1210
1288
1304
1204
2800
47FE
0000
ENDCHAR
STARTCHAR U_9009
ENCODING 36873
SWIDTH 1000 0
DWIDTH 16 0
BBX 16 16 0 -2
BITMAP
0040
2240
1240
13F8
0440
0040
F7FC
1120
1120
1120
1224
1224
141C
2800
47FE
0000
ENDCHAR
STARTCHAR U_901A
ENCODING 36890
SWIDTH 1000 0
DWIDTH 16 0
BBX 16 16 0 -2
BITMAP
0000
47F8
2010
21A0
0040
07FC
E444
2444
27FC
2444
2444
27FC
2444
2454
5408
8FFE
ENDCHAR
STARTCHAR U_901F
ENCODING 36895
SWIDTH 1000 0
DWIDTH 16 0
BBX 16 16 0 -2
BITMAP
0040
2040
17FC
1040
03F8
0248
F248
13F8
10E0
1150
1248
1444
1040
2800
47FE
0000
ENDCHAR
STARTCHAR U_9053
ENCODING 36947
SWIDTH 1000 0
DWIDTH 16 0
BBX 16 16 0 -2
BITMAP
0208
2110
1000
17FC
0080
03F8
F208
13F8
1208
13F8
1208
13F8
1208
2800
47FE
0000
ENDCHAR
STARTCHAR U_9065
ENCODING 36965
SWIDTH 1000 0
DWIDTH 16 0
BBX 16 16 0 -2
BITMAP
003C
23C0
1004
1244
0128
01FC
F220
1020
13FE
1020
1124
1124
1124
11FC
2800
47FE
ENDCHAR
STARTCHAR U_907F
ENCODING 36991
SWIDTH 1000 0
DWIDTH 16 0
BBX 16 16 0 -2
BITMAP
0010
4788
24BE
2480
04A2
0794
E43E
2808
2F88
34BE
2488
2788
2488
5000
8FFE
0000
ENDCHAR
STARTCHAR U_91C7
ENCODING 37319
SWIDTH 1000 0
DWIDTH 16 0
BBX 16 16 0 -2
BITMAP
0010
00F8
3F00
0200
1110
0910
0820
0100
7FFC
0380
0540
0920
1110
2108
C106
0100
ENDCHAR
STARTCHAR U_91CD
ENCODING 37325
SWIDTH 1000 0
DWIDTH 16 0
BBX 16 16 0 -2
BITMAP
0010
00F8
3F00
0100
FFFE
0100
1FF0
1110
1FF0
1110
1FF0
0100
3FF8
0100
FFFE
0000
ENDCHAR
STARTCHAR U_91CF
ENCODING 37327
SWIDTH 1000 0
DWIDTH 16 0
BBX 16 16 0 -2
BITMAP
0000
1FF0
1010
1FF0
1010
FFFE
0000
1FF0
1110
1FF0
1110
1FF0
0100
1FF0
0100
7FFC
ENDCHAR
STARTCHAR U_91D1
ENCODING 37329
SWIDTH 1000 0
DWIDTH 16 0
BBX 16 16 0 -2
BITMAP
0100
0100
0280
0440
0820
1010
2FE8
C106
0100
3FF8
0100
1110
0910
0920
FFFE
0000
ENDCHAR
STARTCHAR U_9501
ENCODING 38145
SWIDTH 1000 0
DWIDTH 16 0
BBX 16 16 0 -2
BITMAP
1020
1124
3CA4
20A8
4020
BDFC
1104
1124
FD24
1124
1124
1124
1450
1888
1104
0202
ENDCHAR
STARTCHAR U_9519
ENCODING 38169
SWIDTH 1000 0
DWIDTH 16 0
BBX 16 16 0 -2
BITMAP
2110
2110
3910
27FC
4110
7910
AFFE
2000
FBF8
2208
2208
23F8
2A08
3208
23F8
0208
ENDCHAR
STARTCHAR U_952E
ENCODING 38190
SWIDTH 1000 0
DWIDTH 16 0
BBX 16 16 0 -2
BITMAP
2010
2010
3B7C
2114
41FE
7A14
A27C
2710
F97C
2510
25FE
2210
2A10
3500
28FE
0000
ENDCHAR
STARTCHAR U_957F
ENCODING 38271
SWIDTH 1000 0
DWIDTH 16 0
BBX 16 16 0 -2
BITMAP
0800
0810
0820
0840
0880
0900
0800
FFFE
0A00
0900
0880
0840
0920
0A18
0C06
0800
ENDCHAR
STARTCHAR U_95EA
ENCODING 38378
SWIDTH 1000 0
DWIDTH 16 0
BBX 16 16 0 -2
BITMAP
2000
17FC
0004
4004
4104
4104
4104
4104
4284
4244
4424
4824
4004
4004
4014
4008
ENDCHAR
STARTCHAR U_9640
ENCODING 38464
SWIDTH 1000 0
DWIDTH 16 0
BBX 16 16 0 -2
BITMAP
0040
7C20
4420
49FE
4902
5204
4900
4908
4510
4520
45C0
6904
5104
4104
40FC
4000
ENDCHAR
STARTCHAR U_96C6
ENCODING 38598
SWIDTH 1000 0
DWIDTH 16 0
BBX 16 16 0 -2
BITMAP
0900
0880
1FFC
3080
5FF8
9080
1FF8
1080
1FFC
1100
FFFE
0540
0920
3118
C106
0100
ENDCHAR
STARTCHAR U_9700
ENCODING 38656
SWIDTH 1000 0
DWIDTH 16 0
BBX 16 16 0 -2
BITMAP
0000
3FF8
0100
7FFE
4102
9D74
0100
1D70
0000
FFFE
0200
3FF8
2488
2488
24A8
2010
ENDCHAR
STARTCHAR U_9759
ENCODING 38745
SWIDTH 1000 0
DWIDTH 16 0
BBX 16 16 0 -2
BITMAP
1040
1040
FE78
1088
7C10
11FC
FE24
0024
7DFE
4424
7C24
45FC
7C24
4420
54A0
4840
ENDCHAR
STARTCHAR U_9762
ENCODING 38754
SWIDTH 1000 0
DWIDTH 16 0
BBX 16 16 0 -2
BITMAP
0000
FFFE
0200
0200
0400
3FF8
2448
2448
27C8
2448
2448
27C8
2448
2448
3FF8
2008
ENDCHAR
STARTCHAR U_9875
ENCODING 39029
SWIDTH 1000 0
DWIDTH 16 0
BBX 16 16 0 -2
BITMAP
0000
7FFC
0200
0400
1FF0
1010
1110
1110
1110
1110
1110
1290
0240
0420
1810
6008
ENDCHAR
STARTCHAR U_9879
ENCODING 39033
SWIDTH 1000 0
DWIDTH 16 0
BBX 16 16 0 -2
BITMAP
0000
01FE
0020
FC40
11FC
1104
1124
1124
1124
1124
1124
1D44
E050
4088
0104
0202
ENDCHAR
STARTCHAR U_98DE
ENCODING 39134
SWIDTH 1000 0
DWIDTH 16 0
BBX 16 16 0 -2
BITMAP
0000
FFC0
0040
0044
0048
0050
0060
0050
0048
0044
0020
0020
0012
000A
0006
0002
ENDCHAR
STARTCHAR U_9ED8
ENCODING 40664
SWIDTH 1000 0
DWIDTH 16 0
BBX 16 16 0 -2
BITMAP
0020
FE28
9224
D624
BA20
93FE
FE20
1020
FE20
1050
1E50
E050
0288
AA88
A904
8202
ENDCHAR
STARTCHAR U_FF08
ENCODING 65288
SWIDTH 0 0
DWIDTH 16 0
BBX 4 16 9 -2
BITMAP
10
20
20
40
40
40
80
80
80
80
40
40
40
20
20
10
ENDCHAR
STARTCHAR U_FF09
ENCODING 65289
SWIDTH 0 0
DWIDTH 16 0
BBX 4 16 3 -2
BITMAP
80
40
40
20
20
20
10
10
10
10
20
20
20
40
40
80
ENDCHAR
STARTCHAR U_FF1A
ENCODING 65306
SWIDTH 0 0
DWIDTH 16 0
BBX 2 8 7 2
BITMAP
C0
C0
00
00
00
00
C0
C0
ENDCHAR
STARTCHAR U_FF1F
ENCODING 65311
SWIDTH 1000 0
DWIDTH 16 0
BBX 8 14 4 0
BITMAP
3C
42
81
81
81
02
04
08
08
08
00
00
08
08
ENDCHAR
ENDFONT
