STARTFONT 2.1
FONT -wenquanyi-wenquanyi bitmap song-medium-r-normal--12-120-75-75-P-119-ISO10646-1
COMMENT ==========================================================
COMMENT                Wen Quan Yi Bitmap Song
COMMENT ----------------------------------------------------------
COMMENT Summary:
COMMENT
COMMENT     	Authors  : WenQuanYi Contributors
COMMENT     	Webpage  : http://wenq.org/en/
COMMENT     	Font Name: WenQuanYi Bitmap Song
COMMENT     	Version  : 0.9.9.8
COMMENT     	Release  : 8
COMMENT     	Copyright: (C)2004-2010, WenQuanYi Project
COMMENT     		   Board of Trustees and Qianqian Fang
COMMENT     	License  : GPL v2 (with font embedding exception)
COMMENT
COMMENT           May the Font be with you, forever!
COMMENT ----------------------------------------------------------
COMMENT WenQuanYi bitmap fonts include all 20,932 Unicode 5.2
COMMENT CJK Unified Ideographs (U4E00 - U9FA5) and 6,582
COMMENT CJK Extension A characters (U3400 - U4DB5) at
COMMENT 5 different pixel sizes (9pt-12X12, 10pt-13X13,
COMMENT 10.5pt-14x14, 11pt-15X15 and 12pt-16x16 pixel).
COMMENT Use of this bitmap font for on-screen display of Chinese
COMMENT (traditional and simplified) in web pages and elsewhere
COMMENT eliminates the annoying "blurring" problems caused by
COMMENT insufficient "hinting" of anti-aliased vector CJK fonts.
COMMENT In addition, Latin characters, Japanese Kanas and
COMMENT Korean Hangul glyphs (U+AC00~U+D7A3) are also included.
COMMENT ----------------------------------------------------------
COMMENT WenQuanYi Contributors:
COMMENT
COMMENT Project Maintainer: Qianqian Fang(fangq<at>nmr.mgh.harvard.edu)
COMMENT
COMMENT Major contributors: wanghong, tchaikov,ailantian,niqiu,fiag
COMMENT                     caiqian,fundawang
COMMENT Other contributors: activeion,amadeoh,BabyPBC,BenBear,
COMMENT                     brep,chaoslawful,DannyZeng,farm,fiag,keykeen,
COMMENT                     liyi,lucifer,nilarcs,niqiu,pangwa,pathfinder,
COMMENT                     pinker,PONY,pupilzeng,shhky,stid,wuler.lv,
COMMENT                     xnuxmwx,namespace,leftstand,MarkLam,buick,
COMMENT                     liqian,qinling,Seeker,xiaoma,ZaiJianQingRen,
COMMENT 		    SiCengXiangShi,the_owl,whppc,eka,failsafe,
COMMENT                     musiccow,Blueelf,lenovox,udi,leal
COMMENT ----------------------------------------------------------
COMMENT This file: WenQuanYi Bitmap Song 9pt medium
COMMENT Created by Qianqian Fang (fangq<at>nmr.mgh.harvard.edu)
COMMENT ----------------------------------------------------------
SIZE 12 75 75
FONTBOUNDINGBOX 12 14 0 -3
STARTPROPERTIES 27
FONT_NAME "WenQuanYi Bitmap Song"
FONT_ASCENT 12
FONT_DESCENT 3
UNDERLINE_POSITION -3
UNDERLINE_THICKNESS 1
QUAD_WIDTH 12
X_HEIGHT 5
CAP_HEIGHT 7
FONTNAME_REGISTRY ""
FAMILY_NAME "WenQuanYi Bitmap Song"
FOUNDRY "WenQuanYi"
WEIGHT_NAME "Medium"
SETWIDTH_NAME "Normal"
SLANT "R"
ADD_STYLE_NAME ""
FONT_VERSION "000.998"
PIXEL_SIZE 12
POINT_SIZE 120
DEFAULT_CHAR 0
RESOLUTION_X 75
RESOLUTION_Y 75
RESOLUTION 75
SPACING "P"
AVERAGE_WIDTH 119
CHARSET_REGISTRY "ISO10646"
CHARSET_ENCODING "1"
CHARSET_COLLECTIONS "ASCII ISO8859-5 GB2312.1980 BIG5-0 KSC5601.1989-0 JISX0208.1997 ISO10646-1"
ENDPROPERTIES
CHARS 306
STARTCHAR U_0020
ENCODING 32
SWIDTH 500 0
DWIDTH 6 0
BBX 1 1 0 0
BITMAP
00
ENDCHAR
STARTCHAR exclam
ENCODING 33
SWIDTH 500 0
DWIDTH 6 0
BBX 1 9 2 0
BITMAP
80
80
80
80
80
80
00
00
80
ENDCHAR
STARTCHAR quotedbl
ENCODING 34
SWIDTH 583 0
DWIDTH 6 0
BBX 4 3 1 7
BITMAP
90
90
90
ENDCHAR
STARTCHAR numbersign
ENCODING 35
SWIDTH 500 0
DWIDTH 7 0
BBX 6 9 0 0
BITMAP
48
48
FC
48
48
48
FC
48
48
ENDCHAR
STARTCHAR dollar
ENCODING 36
SWIDTH 500 0
DWIDTH 6 0
BBX 5 10 0 -1
BITMAP
20
70
A8
A0
60
30
28
A8
70
20
ENDCHAR
STARTCHAR percent
ENCODING 37
SWIDTH 416 0
DWIDTH 6 0
BBX 6 9 0 -1
BITMAP
48
A8
B0
50
20
28
54
54
88
ENDCHAR
STARTCHAR ampersand
ENCODING 38
SWIDTH 500 0
DWIDTH 6 0
BBX 5 8 0 0
BITMAP
20
50
50
20
58
90
90
68
ENDCHAR
STARTCHAR quotesingle
ENCODING 39
SWIDTH 500 0
DWIDTH 5 0
BBX 1 3 2 7
BITMAP
80
80
80
ENDCHAR
STARTCHAR parenleft
ENCODING 40
SWIDTH 500 0
DWIDTH 6 0
BBX 3 11 1 -1
BITMAP
20
40
40
80
80
80
80
80
40
40
20
ENDCHAR
STARTCHAR parenright
ENCODING 41
SWIDTH 500 0
DWIDTH 6 0
BBX 3 11 1 -1
BITMAP
80
40
40
20
20
20
20
20
40
40
80
ENDCHAR
STARTCHAR asterisk
ENCODING 42
SWIDTH 666 0
DWIDTH 6 0
BBX 5 7 0 0
BITMAP
20
A8
70
F8
70
A8
20
ENDCHAR
STARTCHAR plus
ENCODING 43
SWIDTH 500 0
DWIDTH 8 0
BBX 7 7 0 0
BITMAP
10
10
10
FE
10
10
10
ENDCHAR
STARTCHAR comma
ENCODING 44
SWIDTH 500 0
DWIDTH 6 0
BBX 2 3 2 -1
BITMAP
C0
40
80
ENDCHAR
STARTCHAR hyphen
ENCODING 45
SWIDTH 416 0
DWIDTH 6 0
BBX 5 1 0 4
BITMAP
F8
ENDCHAR
STARTCHAR period
ENCODING 46
SWIDTH 500 0
DWIDTH 5 0
BBX 1 2 2 0
BITMAP
80
80
ENDCHAR
STARTCHAR U_002F
ENCODING 47
SWIDTH 1000 0
DWIDTH 6 0
BBX 4 12 0 -1
BITMAP
10
10
10
20
20
20
40
40
40
80
80
80
ENDCHAR
STARTCHAR zero
ENCODING 48
SWIDTH 636 0
DWIDTH 6 0
BBX 5 8 0 0
BITMAP
70
88
88
88
88
88
88
70
ENDCHAR
STARTCHAR one
ENCODING 49
SWIDTH 500 0
DWIDTH 6 0
BBX 5 8 0 0
BITMAP
E0
20
20
20
20
20
20
F8
ENDCHAR
STARTCHAR two
ENCODING 50
SWIDTH 500 0
DWIDTH 6 0
BBX 5 8 0 0
BITMAP
70
88
08
08
10
20
40
F8
ENDCHAR
STARTCHAR three
ENCODING 51
SWIDTH 500 0
DWIDTH 6 0
BBX 5 8 0 0
BITMAP
F0
08
08
70
08
08
08
F0
ENDCHAR
STARTCHAR four
ENCODING 52
SWIDTH 500 0
DWIDTH 7 0
BBX 6 8 0 0
BITMAP
18
28
48
48
88
FC
08
08
ENDCHAR
STARTCHAR five
ENCODING 53
SWIDTH 500 0
DWIDTH 6 0
BBX 5 8 0 0
BITMAP
F0
80
80
F0
08
08
08
F0
ENDCHAR
STARTCHAR six
ENCODING 54
SWIDTH 500 0
DWIDTH 6 0
BBX 5 8 0 0
BITMAP
70
80
80
F0
88
88
88
70
ENDCHAR
STARTCHAR seven
ENCODING 55
SWIDTH 666 0
DWIDTH 6 0
BBX 5 8 0 0
BITMAP
F8
08
08
10
10
20
20
20
ENDCHAR
STARTCHAR eight
ENCODING 56
SWIDTH 684 0
DWIDTH 6 0
BBX 5 8 0 0
BITMAP
70
88
88
70
88
88
88
70
ENDCHAR
STARTCHAR nine
ENCODING 57
SWIDTH 686 0
DWIDTH 6 0
BBX 5 8 0 0
BITMAP
70
88
88
88
78
08
88
70
ENDCHAR
STARTCHAR U_003A
ENCODING 58
SWIDTH 500 0
DWIDTH 2 0
BBX 1 7 0 0
BITMAP
00
80
80
00
00
80
80
ENDCHAR
STARTCHAR semicolon
ENCODING 59
SWIDTH 500 0
DWIDTH 6 0
BBX 2 8 2 -1
BITMAP
C0
C0
00
00
00
C0
40
80
ENDCHAR
STARTCHAR less
ENCODING 60
SWIDTH 500 0
DWIDTH 6 0
BBX 5 9 0 0
BITMAP
08
10
20
40
80
40
20
10
08
ENDCHAR
STARTCHAR equal
ENCODING 61
SWIDTH 500 0
DWIDTH 6 0
BBX 5 3 0 3
BITMAP
F8
00
F8
ENDCHAR
STARTCHAR greater
ENCODING 62
SWIDTH 500 0
DWIDTH 6 0
BBX 5 9 0 0
BITMAP
80
40
20
10
08
10
20
40
80
ENDCHAR
STARTCHAR question
ENCODING 63
SWIDTH 583 0
DWIDTH 6 0
BBX 5 9 0 0
BITMAP
70
88
88
08
30
20
00
20
20
ENDCHAR
STARTCHAR at
ENCODING 64
SWIDTH 333 0
DWIDTH 8 0
BBX 7 10 0 -1
BITMAP
38
44
B2
8A
9A
AA
AA
96
44
38
ENDCHAR
STARTCHAR A
ENCODING 65
SWIDTH 294 0
DWIDTH 8 0
BBX 7 8 0 0
BITMAP
10
10
28
28
44
7C
82
82
ENDCHAR
STARTCHAR B
ENCODING 66
SWIDTH 500 0
DWIDTH 7 0
BBX 6 8 0 0
BITMAP
F8
84
84
F8
84
84
84
F8
ENDCHAR
STARTCHAR C
ENCODING 67
SWIDTH 557 0
DWIDTH 7 0
BBX 6 8 0 0
BITMAP
78
84
80
80
80
80
84
78
ENDCHAR
STARTCHAR D
ENCODING 68
SWIDTH 666 0
DWIDTH 8 0
BBX 7 8 0 0
BITMAP
F8
84
82
82
82
82
84
F8
ENDCHAR
STARTCHAR E
ENCODING 69
SWIDTH 583 0
DWIDTH 6 0
BBX 5 8 0 0
BITMAP
F8
80
80
F8
80
80
80
F8
ENDCHAR
STARTCHAR F
ENCODING 70
SWIDTH 666 0
DWIDTH 6 0
BBX 5 8 0 0
BITMAP
F8
80
80
F0
80
80
80
80
ENDCHAR
STARTCHAR G
ENCODING 71
SWIDTH 500 0
DWIDTH 7 0
BBX 6 8 0 0
BITMAP
78
84
80
80
8C
84
84
7C
ENDCHAR
STARTCHAR H
ENCODING 72
SWIDTH 666 0
DWIDTH 7 0
BBX 6 8 0 0
BITMAP
84
84
84
FC
84
84
84
84
ENDCHAR
STARTCHAR I
ENCODING 73
SWIDTH 500 0
DWIDTH 4 0
BBX 3 8 0 0
BITMAP
E0
40
40
40
40
40
40
E0
ENDCHAR
STARTCHAR J
ENCODING 74
SWIDTH 500 0
DWIDTH 4 0
BBX 3 10 0 -2
BITMAP
20
20
20
20
20
20
20
20
20
C0
ENDCHAR
STARTCHAR K
ENCODING 75
SWIDTH 610 0
DWIDTH 6 0
BBX 5 8 0 0
BITMAP
88
90
A0
C0
C0
A0
90
88
ENDCHAR
STARTCHAR L
ENCODING 76
SWIDTH 583 0
DWIDTH 6 0
BBX 5 8 0 0
BITMAP
80
80
80
80
80
80
80
F8
ENDCHAR
STARTCHAR M
ENCODING 77
SWIDTH 666 0
DWIDTH 8 0
BBX 7 8 0 0
BITMAP
C6
C6
AA
AA
92
92
82
82
ENDCHAR
STARTCHAR N
ENCODING 78
SWIDTH 833 0
DWIDTH 7 0
BBX 6 8 0 0
BITMAP
84
C4
A4
94
8C
84
84
84
ENDCHAR
STARTCHAR O
ENCODING 79
SWIDTH 583 0
DWIDTH 8 0
BBX 7 8 0 0
BITMAP
38
44
82
82
82
82
44
38
ENDCHAR
STARTCHAR P
ENCODING 80
SWIDTH 666 0
DWIDTH 6 0
BBX 5 8 0 0
BITMAP
F0
88
88
88
F0
80
80
80
ENDCHAR
STARTCHAR Q
ENCODING 81
SWIDTH 666 0
DWIDTH 8 0
BBX 7 9 0 -1
BITMAP
38
44
82
82
82
82
44
38
04
ENDCHAR
STARTCHAR R
ENCODING 82
SWIDTH 500 0
DWIDTH 7 0
BBX 6 8 0 0
BITMAP
F0
88
88
88
F0
90
88
84
ENDCHAR
STARTCHAR S
ENCODING 83
SWIDTH 500 0
DWIDTH 6 0
BBX 5 8 0 0
BITMAP
78
80
80
70
08
08
08
F0
ENDCHAR
STARTCHAR T
ENCODING 84
SWIDTH 500 0
DWIDTH 8 0
BBX 7 8 0 0
BITMAP
FE
10
10
10
10
10
10
10
ENDCHAR
STARTCHAR U
ENCODING 85
SWIDTH 500 0
DWIDTH 7 0
BBX 6 8 0 0
BITMAP
84
84
84
84
84
84
84
78
ENDCHAR
STARTCHAR V
ENCODING 86
SWIDTH 500 0
DWIDTH 8 0
BBX 7 8 0 0
BITMAP
82
82
44
44
28
28
10
10
ENDCHAR
STARTCHAR W
ENCODING 87
SWIDTH 500 0
DWIDTH 10 0
BBX 9 8 0 0
BITMAP
8880
8880
8880
5500
5500
5500
2200
2200
ENDCHAR
STARTCHAR X
ENCODING 88
SWIDTH 500 0
DWIDTH 7 0
BBX 6 8 0 0
BITMAP
84
84
48
30
48
48
84
84
ENDCHAR
STARTCHAR Y
ENCODING 89
SWIDTH 500 0
DWIDTH 8 0
BBX 7 8 0 0
BITMAP
82
44
28
10
10
10
10
10
ENDCHAR
STARTCHAR Z
ENCODING 90
SWIDTH 416 0
DWIDTH 8 0
BBX 7 8 0 0
BITMAP
FE
04
08
10
20
40
80
FE
ENDCHAR
STARTCHAR bracketleft
ENCODING 91
SWIDTH 500 0
DWIDTH 6 0
BBX 3 11 2 -1
BITMAP
E0
80
80
80
80
80
80
80
80
80
E0
ENDCHAR
STARTCHAR backslash
ENCODING 92
SWIDTH 500 0
DWIDTH 6 0
BBX 5 10 0 -1
BITMAP
80
80
40
40
20
20
10
10
08
08
ENDCHAR
STARTCHAR bracketright
ENCODING 93
SWIDTH 500 0
DWIDTH 6 0
BBX 3 11 1 -1
BITMAP
E0
20
20
20
20
20
20
20
20
20
E0
ENDCHAR
STARTCHAR asciicircum
ENCODING 94
SWIDTH 500 0
DWIDTH 6 0
BBX 5 3 0 6
BITMAP
20
50
88
ENDCHAR
STARTCHAR underscore
ENCODING 95
SWIDTH 500 0
DWIDTH 6 0
BBX 5 1 0 -1
BITMAP
F8
ENDCHAR
STARTCHAR U_0060
ENCODING 96
SWIDTH 500 0
DWIDTH 5 0
BBX 2 3 1 7
BITMAP
80
80
40
ENDCHAR
STARTCHAR a
ENCODING 97
SWIDTH 277 0
DWIDTH 6 0
BBX 5 6 0 0
BITMAP
70
88
78
88
88
78
ENDCHAR
STARTCHAR b
ENCODING 98
SWIDTH 416 0
DWIDTH 6 0
BBX 5 8 0 0
BITMAP
80
80
F0
88
88
88
88
F0
ENDCHAR
STARTCHAR c
ENCODING 99
SWIDTH 166 0
DWIDTH 5 0
BBX 4 6 0 0
BITMAP
70
80
80
80
80
70
ENDCHAR
STARTCHAR d
ENCODING 100
SWIDTH 833 0
DWIDTH 6 0
BBX 5 8 0 0
BITMAP
08
08
78
88
88
88
88
78
ENDCHAR
STARTCHAR e
ENCODING 101
SWIDTH 500 0
DWIDTH 6 0
BBX 5 6 0 0
BITMAP
70
88
F8
80
80
78
ENDCHAR
STARTCHAR f
ENCODING 102
SWIDTH 500 0
DWIDTH 4 0
BBX 3 8 0 0
BITMAP
60
80
E0
80
80
80
80
80
ENDCHAR
STARTCHAR g
ENCODING 103
SWIDTH 500 0
DWIDTH 6 0
BBX 5 8 0 -2
BITMAP
78
88
88
88
88
78
08
70
ENDCHAR
STARTCHAR h
ENCODING 104
SWIDTH 500 0
DWIDTH 6 0
BBX 5 8 0 0
BITMAP
80
80
F0
88
88
88
88
88
ENDCHAR
STARTCHAR i
ENCODING 105
SWIDTH 333 0
DWIDTH 2 0
BBX 1 8 0 0
BITMAP
80
00
80
80
80
80
80
80
ENDCHAR
STARTCHAR j
ENCODING 106
SWIDTH 520 0
DWIDTH 3 0
BBX 2 10 0 -2
BITMAP
40
00
40
40
40
40
40
40
40
C0
ENDCHAR
STARTCHAR k
ENCODING 107
SWIDTH 416 0
DWIDTH 6 0
BBX 5 8 0 0
BITMAP
80
80
90
A0
C0
A0
90
88
ENDCHAR
STARTCHAR l
ENCODING 108
SWIDTH 500 0
DWIDTH 2 0
BBX 1 8 0 0
BITMAP
80
80
80
80
80
80
80
80
ENDCHAR
STARTCHAR m
ENCODING 109
SWIDTH 500 0
DWIDTH 8 0
BBX 7 6 0 0
BITMAP
EC
92
92
92
92
92
ENDCHAR
STARTCHAR n
ENCODING 110
SWIDTH 666 0
DWIDTH 6 0
BBX 5 6 0 0
BITMAP
F0
88
88
88
88
88
ENDCHAR
STARTCHAR o
ENCODING 111
SWIDTH 500 0
DWIDTH 6 0
BBX 5 6 0 0
BITMAP
70
88
88
88
88
70
ENDCHAR
STARTCHAR p
ENCODING 112
SWIDTH 500 0
DWIDTH 6 0
BBX 5 8 0 -2
BITMAP
F0
88
88
88
88
F0
80
80
ENDCHAR
STARTCHAR q
ENCODING 113
SWIDTH 500 0
DWIDTH 6 0
BBX 5 8 0 -2
BITMAP
78
88
88
88
88
78
08
08
ENDCHAR
STARTCHAR r
ENCODING 114
SWIDTH 500 0
DWIDTH 4 0
BBX 3 6 0 0
BITMAP
E0
80
80
80
80
80
ENDCHAR
STARTCHAR s
ENCODING 115
SWIDTH 416 0
DWIDTH 6 0
BBX 5 6 0 0
BITMAP
70
88
60
10
88
70
ENDCHAR
STARTCHAR t
ENCODING 116
SWIDTH 500 0
DWIDTH 4 0
BBX 3 8 0 0
BITMAP
80
80
E0
80
80
80
80
60
ENDCHAR
STARTCHAR u
ENCODING 117
SWIDTH 500 0
DWIDTH 6 0
BBX 5 6 0 0
BITMAP
88
88
88
88
88
78
ENDCHAR
STARTCHAR v
ENCODING 118
SWIDTH 500 0
DWIDTH 6 0
BBX 5 6 0 0
BITMAP
88
88
50
50
20
20
ENDCHAR
STARTCHAR w
ENCODING 119
SWIDTH 636 0
DWIDTH 8 0
BBX 7 6 0 0
BITMAP
92
92
AA
AA
44
44
ENDCHAR
STARTCHAR x
ENCODING 120
SWIDTH 500 0
DWIDTH 6 0
BBX 5 6 0 0
BITMAP
88
50
20
50
88
88
ENDCHAR
STARTCHAR y
ENCODING 121
SWIDTH 500 0
DWIDTH 6 0
BBX 5 8 0 -2
BITMAP
88
88
50
50
20
20
40
40
ENDCHAR
STARTCHAR z
ENCODING 122
SWIDTH 500 0
DWIDTH 6 0
BBX 5 6 0 0
BITMAP
F8
08
10
20
40
F8
ENDCHAR
STARTCHAR U_007B
ENCODING 123
SWIDTH 416 0
DWIDTH 4 0
BBX 3 11 0 -1
BITMAP
00
20
40
40
40
80
40
40
40
40
20
ENDCHAR
STARTCHAR bar
ENCODING 124
SWIDTH 500 0
DWIDTH 5 0
BBX 1 11 2 -1
BITMAP
80
80
80
80
80
80
80
80
80
80
80
ENDCHAR
STARTCHAR U_007D
ENCODING 125
SWIDTH 500 0
DWIDTH 4 0
BBX 3 11 0 -1
BITMAP
00
80
40
40
40
20
40
40
40
40
80
ENDCHAR
STARTCHAR U_007E
ENCODING 126
SWIDTH 500 0
DWIDTH 7 0
BBX 6 2 0 3
BITMAP
64
98
ENDCHAR
STARTCHAR U_4E00
ENCODING 19968
SWIDTH 1000 0
DWIDTH 12 0
BBX 11 11 0 -1
BITMAP
0000
0000
0000
0000
0040
FFE0
0000
0000
0000
0000
0000
ENDCHAR
STARTCHAR U_4E09
ENCODING 19977
SWIDTH 1000 0
DWIDTH 12 0
BBX 11 11 0 -1
BITMAP
0000
7FC0
0000
0000
0000
3F80
0000
0000
0000
0000
FFE0
ENDCHAR
STARTCHAR U_4E0A
ENCODING 19978
SWIDTH 1000 0
DWIDTH 12 0
BBX 11 11 0 -1
BITMAP
0400
0400
0400
0400
07C0
0400
0400
0400
0400
0400
FFE0
ENDCHAR
STARTCHAR U_4E0B
ENCODING 19979
SWIDTH 1000 0
DWIDTH 12 0
BBX 11 11 0 -1
BITMAP
0000
FFE0
0400
0400
0600
0500
0480
0480
0400
0400
0400
ENDCHAR
STARTCHAR U_4E0D
ENCODING 19981
SWIDTH 1000 0
DWIDTH 12 0
BBX 11 11 0 -1
BITMAP
FFE0
0200
0200
0400
0D00
1480
2440
4420
8400
0400
0400
ENDCHAR
STARTCHAR U_4E2A
ENCODING 20010
SWIDTH 1000 0
DWIDTH 12 0
BBX 11 11 0 -1
BITMAP
0400
0400
0A00
1100
2480
4460
0400
0400
0400
0400
0400
ENDCHAR
STARTCHAR U_4E2D
ENCODING 20013
SWIDTH 1000 0
DWIDTH 12 0
BBX 11 11 0 -1
BITMAP
0400
0400
7FC0
4440
4440
4440
7FC0
4440
0400
0400
0400
ENDCHAR
STARTCHAR U_4E3B
ENCODING 20027
SWIDTH 1000 0
DWIDTH 12 0
BBX 11 11 0 -1
BITMAP
0800
0400
FFE0
0400
0400
0400
7FC0
0400
0400
0400
FFE0
ENDCHAR
STARTCHAR U_4E5D
ENCODING 20061
SWIDTH 1000 0
DWIDTH 12 0
BBX 11 11 0 -1
BITMAP
0800
0800
0800
7F00
0900
0900
0900
1100
1120
2120
40E0
ENDCHAR
STARTCHAR U_4EBA
ENCODING 20154
SWIDTH 1000 0
DWIDTH 12 0
BBX 11 11 0 -1
BITMAP
0400
0400
0400
0400
0400
0400
0A00
0A00
1100
2080
C060
ENDCHAR
STARTCHAR U_4EC5
ENCODING 20165
SWIDTH 1000 0
DWIDTH 12 0
BBX 11 11 0 -1
BITMAP
1000
1FC0
2440
2440
6440
A280
2280
2100
2280
2440
2820
ENDCHAR
STARTCHAR U_4EEA
ENCODING 20202
SWIDTH 1000 0
DWIDTH 12 0
BBX 11 11 0 -1
BITMAP
1200
1140
2940
2840
6440
A480
2280
2100
2280
2440
2820
ENDCHAR
STARTCHAR U_4EF0
ENCODING 20208
SWIDTH 1000 0
DWIDTH 12 0
BBX 11 11 0 -1
BITMAP
1200
1DE0
2920
2920
6920
A920
2B20
2D20
2960
2100
2100
ENDCHAR
STARTCHAR U_4EF6
ENCODING 20214
SWIDTH 1000 0
DWIDTH 12 0
BBX 11 11 0 -1
BITMAP
1100
1500
2500
2FC0
7100
A100
2FE0
2100
2100
2100
2100
ENDCHAR
STARTCHAR U_4F20
ENCODING 20256
SWIDTH 1000 0
DWIDTH 12 0
BBX 11 11 0 -1
BITMAP
1100
1100
27E0
2100
6FE0
A200
27E0
2040
2280
2100
2080
ENDCHAR
STARTCHAR U_4F4F
ENCODING 20303
SWIDTH 1000 0
DWIDTH 12 0
BBX 11 11 0 -1
BITMAP
1200
1100
2FE0
2100
6100
A100
27C0
2100
2100
2100
2FE0
ENDCHAR
STARTCHAR U_4FDD
ENCODING 20445
SWIDTH 1000 0
DWIDTH 12 0
BBX 11 11 0 -1
BITMAP
17C0
1440
2440
27C0
6100
AFE0
2100
2380
2540
2920
2100
ENDCHAR
STARTCHAR U_4FEF
ENCODING 20463
SWIDTH 1000 0
DWIDTH 12 0
BBX 11 11 0 -1
BITMAP
1100
1FE0
2A40
2A40
6BE0
AE40
2B40
2AC0
2A40
2A40
32C0
ENDCHAR
STARTCHAR U_504F
ENCODING 20559
SWIDTH 1000 0
DWIDTH 12 0
BBX 11 11 0 -1
BITMAP
2100
2FE0
2820
2FE0
6800
AFE0
2AA0
2FE0
2AA0
3AA0
2860
ENDCHAR
STARTCHAR U_505C
ENCODING 20572
SWIDTH 1000 0
DWIDTH 12 0
BBX 11 11 0 -1
BITMAP
2200
3FE0
2000
4FC0
4840
DFE0
5020
4FC0
4100
4100
4700
ENDCHAR
STARTCHAR U_5148
ENCODING 20808
SWIDTH 1000 0
DWIDTH 12 0
BBX 11 11 0 -1
BITMAP
0400
2400
3FC0
4400
8400
FFE0
1200
1200
1220
2220
C1E0
ENDCHAR
STARTCHAR U_5149
ENCODING 20809
SWIDTH 1000 0
DWIDTH 12 0
BBX 11 11 0 -1
BITMAP
0400
4440
2480
0400
FFE0
1200
1200
1220
1220
2220
C1E0
ENDCHAR
STARTCHAR U_516D
ENCODING 20845
SWIDTH 1000 0
DWIDTH 12 0
BBX 11 11 0 -1
BITMAP
0800
0400
0000
FFE0
0000
0000
1100
1080
2040
4020
8020
ENDCHAR
STARTCHAR U_5185
ENCODING 20869
SWIDTH 1000 0
DWIDTH 12 0
BBX 11 11 0 -1
BITMAP
0400
0400
7FE0
4420
4420
4620
4920
50A0
4020
4020
40E0
ENDCHAR
STARTCHAR U_51C6
ENCODING 20934
SWIDTH 1000 0
DWIDTH 12 0
BBX 11 11 0 -1
BITMAP
0A00
8900
4FE0
5900
0900
2FC0
2900
CFC0
4900
4900
4FE0
ENDCHAR
STARTCHAR U_51E0
ENCODING 20960
SWIDTH 1000 0
DWIDTH 12 0
BBX 11 11 0 -1
BITMAP
1F00
1100
1100
1100
1100
1100
1100
1100
2120
2120
C0E0
ENDCHAR
STARTCHAR U_51FA
ENCODING 20986
SWIDTH 1000 0
DWIDTH 12 0
BBX 11 11 0 -1
BITMAP
0400
4440
4440
4440
7FC0
0400
8420
8420
8420
8420
FFE0
ENDCHAR
STARTCHAR U_5207
ENCODING 20999
SWIDTH 1000 0
DWIDTH 12 0
BBX 11 11 0 -1
BITMAP
2000
27E0
2120
3920
E120
2120
2920
3220
2220
0420
08C0
ENDCHAR
STARTCHAR U_521D
ENCODING 21021
SWIDTH 1000 0
DWIDTH 12 0
BBX 11 11 0 -1
BITMAP
4000
27E0
F920
1120
2120
6920
B120
2920
2220
2420
28C0
ENDCHAR
STARTCHAR U_5236
ENCODING 21046
SWIDTH 1000 0
DWIDTH 12 0
BBX 11 11 0 -1
BITMAP
1020
50A0
7EA0
90A0
FEA0
10A0
7EA0
52A0
5220
5620
10E0
ENDCHAR
STARTCHAR U_5237
ENCODING 21047
SWIDTH 1000 0
DWIDTH 12 0
BBX 11 11 0 -1
BITMAP
7E20
4220
7EA0
48A0
48A0
7EA0
6AA0
AAA0
AAA0
2E20
08E0
ENDCHAR
STARTCHAR U_523B
ENCODING 21051
SWIDTH 1000 0
DWIDTH 12 0
BBX 11 11 0 -1
BITMAP
2020
1020
FEA0
24A0
48A0
F4A0
24A0
48A0
9820
2420
C4E0
ENDCHAR
STARTCHAR U_524D
ENCODING 21069
SWIDTH 1000 0
DWIDTH 12 0
BBX 11 11 0 -1
BITMAP
1080
0900
7FE0
0000
3D40
2540
3D40
2540
3D40
2440
2DC0
ENDCHAR
STARTCHAR U_529B
ENCODING 21147
SWIDTH 1000 0
DWIDTH 12 0
BBX 11 11 0 -1
BITMAP
0400
0400
0400
7FC0
0440
0440
0840
0840
1040
2040
4380
ENDCHAR
STARTCHAR U_52A0
ENCODING 21152
SWIDTH 1000 0
DWIDTH 12 0
BBX 11 11 0 -1
BITMAP
2000
2000
FDE0
2520
2520
2520
2520
2520
4520
55E0
8920
ENDCHAR
STARTCHAR U_52A8
ENCODING 21160
SWIDTH 1000 0
DWIDTH 12 0
BBX 11 11 0 -1
BITMAP
0100
7900
0100
03E0
FD20
2120
2120
4920
FA20
0A20
04C0
ENDCHAR
STARTCHAR U_52A9
ENCODING 21161
SWIDTH 1000 0
DWIDTH 12 0
BBX 11 11 0 -1
BITMAP
0100
7900
4900
4BE0
7920
4920
7920
4920
5E20
E2A0
0440
ENDCHAR
STARTCHAR U_52BF
ENCODING 21183
SWIDTH 1000 0
DWIDTH 12 0
BBX 11 11 0 -1
BITMAP
2100
FFC0
2140
FD40
2240
ED60
0800
7FC0
0840
1040
E1C0
ENDCHAR
STARTCHAR U_5316
ENCODING 21270
SWIDTH 1000 0
DWIDTH 12 0
BBX 11 11 0 -1
BITMAP
1200
1200
2240
2280
6300
A200
2600
2A00
2220
2220
21E0
ENDCHAR
STARTCHAR U_5355
ENCODING 21333
SWIDTH 1000 0
DWIDTH 12 0
BBX 11 11 0 -1
BITMAP
1100
0A00
7FC0
4440
7FC0
4440
7FC0
0400
FFE0
0400
0400
ENDCHAR
STARTCHAR U_538B
ENCODING 21387
SWIDTH 1000 0
DWIDTH 12 0
BBX 11 11 0 -1
BITMAP
3FE0
2000
2200
2200
2200
3FC0
2200
2280
4240
4200
BFE0
ENDCHAR
STARTCHAR U_539F
ENCODING 21407
SWIDTH 1000 0
DWIDTH 12 0
BBX 11 11 0 -1
BITMAP
3FE0
2200
2FC0
2840
2FC0
2840
2FC0
2200
2A80
5260
A620
ENDCHAR
STARTCHAR U_53C2
ENCODING 21442
SWIDTH 1000 0
DWIDTH 12 0
BBX 11 11 0 -1
BITMAP
0800
1100
3F80
0800
FFE0
2480
D860
0600
1880
0300
3C00
ENDCHAR
STARTCHAR U_53D6
ENCODING 21462
SWIDTH 1000 0
DWIDTH 12 0
BBX 11 11 0 -1
BITMAP
FC00
4BE0
4A20
7A20
4940
7940
4880
4C80
F940
0A40
0C20
ENDCHAR
STARTCHAR U_53EF
ENCODING 21487
SWIDTH 1000 0
DWIDTH 12 0
BBX 11 11 0 -1
BITMAP
0000
FFE0
0080
3C80
2480
2480
3C80
2480
0080
0080
0380
ENDCHAR
STARTCHAR U_540E
ENCODING 21518
SWIDTH 1000 0
DWIDTH 12 0
BBX 11 11 0 -1
BITMAP
01C0
3E00
2000
3FE0
2000
2000
2FC0
2840
4840
4FC0
8840
ENDCHAR
STARTCHAR U_5411
ENCODING 21521
SWIDTH 1000 0
DWIDTH 12 0
BBX 11 11 0 -1
BITMAP
0800
1000
FFC0
8040
9E40
9240
9240
9E40
8040
8040
81C0
ENDCHAR
STARTCHAR U_5668
ENCODING 22120
SWIDTH 1000 0
DWIDTH 12 0
BBX 11 11 0 -1
BITMAP
7BC0
4A40
4A40
7BC0
0480
FFE0
1100
FBE0
4A40
4A40
7BC0
ENDCHAR
STARTCHAR U_56DE
ENCODING 22238
SWIDTH 1000 0
DWIDTH 12 0
BBX 11 11 0 -1
BITMAP
7FE0
4020
4020
4F20
4920
4920
4F20
4920
4020
7FE0
4020
ENDCHAR
STARTCHAR U_56FE
ENCODING 22270
SWIDTH 1000 0
DWIDTH 12 0
BBX 11 11 0 -1
BITMAP
7FE0
4820
4FA0
5920
6620
4920
74E0
4220
4420
4220
7FE0
ENDCHAR
STARTCHAR U_5728
ENCODING 22312
SWIDTH 1000 0
DWIDTH 12 0
BBX 11 11 0 -1
BITMAP
0400
0400
7FE0
0800
1100
3100
57C0
1100
1100
1100
1FE0
ENDCHAR
STARTCHAR U_5730
ENCODING 22320
SWIDTH 1000 0
DWIDTH 12 0
BBX 11 11 0 -1
BITMAP
2100
2500
2540
F5C0
2740
2D40
2540
25C0
3520
C420
03E0
ENDCHAR
STARTCHAR U_573A
ENCODING 22330
SWIDTH 1000 0
DWIDTH 12 0
BBX 11 11 0 -1
BITMAP
2FC0
2080
2100
F200
2FE0
22A0
24A0
3920
C220
0C20
00C0
ENDCHAR
STARTCHAR U_5907
ENCODING 22791
SWIDTH 1000 0
DWIDTH 12 0
BBX 11 11 0 -1
BITMAP
1000
1F80
3100
4E00
0B00
30E0
FF80
2480
3F80
2480
3F80
ENDCHAR
STARTCHAR U_590D
ENCODING 22797
SWIDTH 1000 0
DWIDTH 12 0
BBX 11 11 0 -1
BITMAP
2000
3FE0
6080
BF80
2080
3F80
1000
3F80
C900
0600
F9E0
ENDCHAR
STARTCHAR U_591A
ENCODING 22810
SWIDTH 1000 0
DWIDTH 12 0
BBX 11 11 0 -1
BITMAP
0400
0F80
1080
2900
0600
1A00
67C0
0840
3480
0300
7C00
ENDCHAR
STARTCHAR U_5931
ENCODING 22833
SWIDTH 1000 0
DWIDTH 12 0
BBX 11 11 0 -1
BITMAP
2400
2400
3FC0
4400
0400
FFE0
0400
0A00
1100
2080
C060
ENDCHAR
STARTCHAR U_597D
ENCODING 22909
SWIDTH 1000 0
DWIDTH 12 0
BBX 11 11 0 -1
BITMAP
2000
23E0
F840
2880
2880
4FE0
5080
3080
2880
4880
8380
ENDCHAR
STARTCHAR U_59CB
ENCODING 22987
SWIDTH 1000 0
DWIDTH 12 0
BBX 11 11 0 -1
BITMAP
2100
2100
FA40
2A20
2FE0
4800
53E0
3220
2A20
4BE0
8220
ENDCHAR
STARTCHAR U_59FF
ENCODING 23039
SWIDTH 1000 0
DWIDTH 12 0
BBX 11 11 0 -1
BITMAP
4400
27E0
2A40
C200
4500
48E0
0800
FFE0
1100
0E00
F1E0
ENDCHAR
STARTCHAR U_5B58
ENCODING 23384
SWIDTH 1000 0
DWIDTH 12 0
BBX 11 11 0 -1
BITMAP
0800
FFE0
1000
2FC0
2080
6100
BFE0
2100
2100
2100
2700
ENDCHAR
STARTCHAR U_5B8C
ENCODING 23436
SWIDTH 1000 0
DWIDTH 12 0
BBX 11 11 0 -1
BITMAP
0400
7FE0
4020
9F40
0000
7FE0
0A00
1200
1220
2220
41E0
ENDCHAR
STARTCHAR U_5B9A
ENCODING 23450
SWIDTH 1000 0
DWIDTH 12 0
BBX 11 11 0 -1
BITMAP
0400
7FE0
4020
8040
3FC0
0400
2400
2780
2400
5400
8FE0
ENDCHAR
STARTCHAR U_5BFC
ENCODING 23548
SWIDTH 1000 0
DWIDTH 12 0
BBX 11 11 0 -1
BITMAP
3F80
2080
3FA0
2020
1FE0
0100
FFE0
1100
0900
0900
0300
ENDCHAR
STARTCHAR U_5C31
ENCODING 23601
SWIDTH 1000 0
DWIDTH 12 0
BBX 11 11 0 -1
BITMAP
1100
FD40
0120
7FE0
4A80
7A80
1280
5AA0
56A0
92A0
3460
ENDCHAR
STARTCHAR U_5C5E
ENCODING 23646
SWIDTH 1000 0
DWIDTH 12 0
BBX 11 11 0 -1
BITMAP
7FC0
4040
7FC0
4040
5F80
4200
5FC0
5240
BFE0
A220
AF60
ENDCHAR
STARTCHAR U_5DE5
ENCODING 24037
SWIDTH 1000 0
DWIDTH 12 0
BBX 11 11 0 -1
BITMAP
0000
7FC0
0400
0400
0400
0400
0400
0400
0400
FFE0
0000
ENDCHAR
STARTCHAR U_5DF2
ENCODING 24050
SWIDTH 1000 0
DWIDTH 12 0
BBX 11 11 0 -1
BITMAP
0000
7F80
0080
0080
4080
7F80
4000
4020
4020
4020
3FE0
ENDCHAR
STARTCHAR U_5E2E
ENCODING 24110
SWIDTH 1000 0
DWIDTH 12 0
BBX 11 11 0 -1
BITMAP
1000
7DE0
1120
7D40
1120
FDE0
2500
7FC0
2440
24C0
0400
ENDCHAR
STARTCHAR U_5E38
ENCODING 24120
SWIDTH 1000 0
DWIDTH 12 0
BBX 11 11 0 -1
BITMAP
2480
7FE0
4020
9FA0
1080
1F80
0400
3FC0
2440
24C0
0400
ENDCHAR
STARTCHAR U_5E73
ENCODING 24179
SWIDTH 1000 0
DWIDTH 12 0
BBX 11 11 0 -1
BITMAP
7FC0
0400
2480
1500
0400
FFE0
0400
0400
0400
0400
0400
ENDCHAR
STARTCHAR U_5EA6
ENCODING 24230
SWIDTH 1000 0
DWIDTH 12 0
BBX 11 11 0 -1
BITMAP
0400
7FE0
4900
7FC0
4900
4F00
4000
5F80
4900
8600
B9C0
ENDCHAR
STARTCHAR U_5F00
ENCODING 24320
SWIDTH 1000 0
DWIDTH 12 0
BBX 11 11 0 -1
BITMAP
7FC0
1100
1100
1100
1100
FFE0
1100
2100
2100
4100
8100
ENDCHAR
STARTCHAR U_5F02
ENCODING 24322
SWIDTH 1000 0
DWIDTH 12 0
BBX 11 11 0 -1
BITMAP
3F80
2080
3F80
2020
3FE0
1100
1100
FFE0
1100
2100
4100
ENDCHAR
STARTCHAR U_5F0F
ENCODING 24335
SWIDTH 1000 0
DWIDTH 12 0
BBX 11 11 0 -1
BITMAP
0280
0240
0200
FFE0
0200
7A00
1200
1100
1120
18A0
E060
ENDCHAR
STARTCHAR U_5F53
ENCODING 24403
SWIDTH 1000 0
DWIDTH 12 0
BBX 11 11 0 -1
BITMAP
0400
4440
2480
1500
7FC0
0040
0040
3FC0
0040
0040
7FC0
ENDCHAR
STARTCHAR U_5F85
ENCODING 24453
SWIDTH 1000 0
DWIDTH 12 0
BBX 11 11 0 -1
BITMAP
1100
2100
47C0
9100
1FE0
2080
6FE0
A480
2280
2080
2180
ENDCHAR
STARTCHAR U_6001
ENCODING 24577
SWIDTH 1000 0
DWIDTH 12 0
BBX 11 11 0 -1
BITMAP
0400
FFE0
0400
0A00
3980
C460
0000
1440
52A0
50A0
8F80
ENDCHAR
STARTCHAR U_6025
ENCODING 24613
SWIDTH 1000 0
DWIDTH 12 0
BBX 11 11 0 -1
BITMAP
0F00
1100
3FC0
4040
1FC0
0040
3FC0
1440
5220
50A0
8F80
ENDCHAR
STARTCHAR U_6027
ENCODING 24615
SWIDTH 1000 0
DWIDTH 12 0
BBX 11 11 0 -1
BITMAP
2100
2500
B500
AFE0
A900
B100
27C0
2100
2100
2100
2FE0
ENDCHAR
STARTCHAR U_603B
ENCODING 24635
SWIDTH 1000 0
DWIDTH 12 0
BBX 11 11 0 -1
BITMAP
1100
0A00
3F80
2080
2080
3F80
2080
0440
52A0
50A0
8F80
ENDCHAR
STARTCHAR U_6062
ENCODING 24674
SWIDTH 1000 0
DWIDTH 12 0
BBX 11 11 0 -1
BITMAP
2200
2FE0
B200
AA80
A480
A5A0
2AC0
3080
2140
2240
2420
ENDCHAR
STARTCHAR U_60EF
ENCODING 24815
SWIDTH 1000 0
DWIDTH 12 0
BBX 11 11 0 -1
BITMAP
27C0
2540
BFE0
A540
A7C0
2000
2FE0
2920
2920
2280
2C60
ENDCHAR
STARTCHAR U_611F
ENCODING 24863
SWIDTH 1000 0
DWIDTH 12 0
BBX 11 11 0 -1
BITMAP
0140
7FE0
4100
7F40
5D40
5280
9DA0
8260
2440
A2A0
9F80
ENDCHAR
STARTCHAR U_6162
ENCODING 24930
SWIDTH 1000 0
DWIDTH 12 0
BBX 11 11 0 -1
BITMAP
27C0
2440
27C0
B440
AFE0
AAA0
2FE0
2000
27C0
2380
2C60
ENDCHAR
STARTCHAR U_6210
ENCODING 25104
SWIDTH 1000 0
DWIDTH 12 0
BBX 11 11 0 -1
BITMAP
0280
0240
7FE0
4200
4200
7A40
4A40
4A80
4920
52A0
8460
ENDCHAR
STARTCHAR U_626B
ENCODING 25195
SWIDTH 1000 0
DWIDTH 12 0
BBX 11 11 0 -1
BITMAP
2000
27E0
F820
2020
2820
33E0
6020
A020
2020
27E0
E000
ENDCHAR
STARTCHAR U_62E9
ENCODING 25321
SWIDTH 1000 0
DWIDTH 12 0
BBX 11 11 0 -1
BITMAP
2FE0
2240
F980
2240
2C20
3100
67C0
A100
2FE0
2100
E100
ENDCHAR
STARTCHAR U_6301
ENCODING 25345
SWIDTH 1000 0
DWIDTH 12 0
BBX 11 11 0 -1
BITMAP
2100
27C0
F900
2100
2FE0
3080
6FE0
A480
2280
2080
E180
ENDCHAR
STARTCHAR U_6309
ENCODING 25353
SWIDTH 1000 0
DWIDTH 12 0
BBX 11 11 0 -1
BITMAP
2100
2080
FFE0
2520
2900
37E0
6240
A640
2180
2280
EC60
ENDCHAR
STARTCHAR U_632F
ENCODING 25391
SWIDTH 1000 0
DWIDTH 12 0
BBX 11 11 0 -1
BITMAP
27E0
2400
FDC0
2400
2FE0
3500
65A0
A540
2540
29A0
E920
ENDCHAR
STARTCHAR U_6362
ENCODING 25442
SWIDTH 1000 0
DWIDTH 12 0
BBX 11 11 0 -1
BITMAP
2200
23C0
FC80
27C0
2D40
3540
6FE0
A100
2280
2440
E820
ENDCHAR
STARTCHAR U_636E
ENCODING 25454
SWIDTH 1000 0
DWIDTH 12 0
BBX 11 11 0 -1
BITMAP
27E0
2420
FC20
27E0
2C80
37E0
6480
A7E0
2E20
AA20
53E0
ENDCHAR
STARTCHAR U_63A5
ENCODING 25509
SWIDTH 1000 0
DWIDTH 12 0
BBX 11 11 0 -1
BITMAP
2100
2FE0
F440
2280
2FE0
3100
6FE0
A240
2680
2140
EE20
ENDCHAR
STARTCHAR U_63A7
ENCODING 25511
SWIDTH 1000 0
DWIDTH 12 0
BBX 11 11 0 -1
BITMAP
2100
2FE0
F820
2280
2440
3820
67C0
A100
2100
2100
EFE0
ENDCHAR
STARTCHAR U_63CF
ENCODING 25551
SWIDTH 1000 0
DWIDTH 12 0
BBX 11 11 0 -1
BITMAP
2280
2FE0
F280
2000
27E0
3520
6520
A7E0
2520
27E0
E420
ENDCHAR
STARTCHAR U_6446
ENCODING 25670
SWIDTH 1000 0
DWIDTH 12 0
BBX 11 11 0 -1
BITMAP
2FE0
2AA0
FAA0
2FE0
2100
37C0
6100
AFE0
2200
2440
EFE0
ENDCHAR
STARTCHAR U_6536
ENCODING 25910
SWIDTH 1000 0
DWIDTH 12 0
BBX 11 11 0 -1
BITMAP
1200
1200
93E0
9440
9A40
9240
B280
D100
9180
1240
1420
ENDCHAR
STARTCHAR U_653E
ENCODING 25918
SWIDTH 1000 0
DWIDTH 12 0
BBX 11 11 0 -1
BITMAP
2100
1100
FDE0
2240
2540
3940
2940
2880
4980
4A40
9420
ENDCHAR
STARTCHAR U_6570
ENCODING 25968
SWIDTH 1000 0
DWIDTH 12 0
BBX 11 11 0 -1
BITMAP
9500
5900
FDE0
3340
5940
9540
FD40
2940
6880
1140
EE20
ENDCHAR
STARTCHAR U_6574
ENCODING 25972
SWIDTH 1000 0
DWIDTH 12 0
BBX 11 11 0 -1
BITMAP
1100
FFE0
5540
7C80
3940
5620
7FC0
0400
2780
2400
FFE0
ENDCHAR
STARTCHAR U_65AD
ENCODING 26029
SWIDTH 1000 0
DWIDTH 12 0
BBX 11 11 0 -1
BITMAP
1060
D580
B900
9100
FDE0
B140
D940
D540
9140
FA40
0440
ENDCHAR
STARTCHAR U_65B0
ENCODING 26032
SWIDTH 1000 0
DWIDTH 12 0
BBX 11 11 0 -1
BITMAP
1060
FD80
4500
2900
FDE0
1140
FD40
1140
5540
9240
3440
ENDCHAR
STARTCHAR U_65B9
ENCODING 26041
SWIDTH 1000 0
DWIDTH 12 0
BBX 11 11 0 -1
BITMAP
0800
0400
FFE0
0800
0800
0F80
1080
1080
2080
4080
8700
ENDCHAR
STARTCHAR U_65CB
ENCODING 26059
SWIDTH 1000 0
DWIDTH 12 0
BBX 11 11 0 -1
BITMAP
4200
23E0
FC00
47E0
78A0
4A80
4AE0
4A80
4A80
AD80
90E0
ENDCHAR
STARTCHAR U_65E0
ENCODING 26080
SWIDTH 1000 0
DWIDTH 12 0
BBX 11 11 0 -1
BITMAP
7FC0
0400
0400
0400
FFE0
0A00
0A00
1200
1220
2220
C1E0
ENDCHAR
STARTCHAR U_660E
ENCODING 26126
SWIDTH 1000 0
DWIDTH 12 0
BBX 11 11 0 -1
BITMAP
03E0
F220
9220
93E0
F220
9220
93E0
F220
0420
08A0
3040
ENDCHAR
STARTCHAR U_663E
ENCODING 26174
SWIDTH 1000 0
DWIDTH 12 0
BBX 11 11 0 -1
BITMAP
3F80
2080
3F80
2080
3F80
0A00
4A40
2A40
2A80
0A00
FFE0
ENDCHAR
STARTCHAR U_6682
ENCODING 26242
SWIDTH 1000 0
DWIDTH 12 0
BBX 11 11 0 -1
BITMAP
2040
FB80
5200
FBE0
1280
F480
3F80
2080
3F80
2080
3F80
ENDCHAR
STARTCHAR U_66F2
ENCODING 26354
SWIDTH 1000 0
DWIDTH 12 0
BBX 11 11 0 -1
BITMAP
0900
0900
7FE0
4920
4920
4920
7FE0
4920
4920
7FE0
4020
ENDCHAR
STARTCHAR U_671D
ENCODING 26397
SWIDTH 1000 0
DWIDTH 12 0
BBX 11 11 0 -1
BITMAP
11E0
FF20
1120
7DE0
4520
7D20
45E0
7D20
1120
FD20
1260
ENDCHAR
STARTCHAR U_671F
ENCODING 26399
SWIDTH 1000 0
DWIDTH 12 0
BBX 11 11 0 -1
BITMAP
49E0
FD20
4920
79E0
4920
7920
49E0
FD20
0120
4920
8660
ENDCHAR
STARTCHAR U_672A
ENCODING 26410
SWIDTH 1000 0
DWIDTH 12 0
BBX 11 11 0 -1
BITMAP
0400
0400
7FC0
0400
FFE0
0400
0E00
1500
2480
C460
0400
ENDCHAR
STARTCHAR U_673A
ENCODING 26426
SWIDTH 1000 0
DWIDTH 12 0
BBX 11 11 0 -1
BITMAP
2000
2780
2480
FC80
2480
7480
6C80
A480
A480
28A0
30E0
ENDCHAR
STARTCHAR U_67E5
ENCODING 26597
SWIDTH 1000 0
DWIDTH 12 0
BBX 11 11 0 -1
BITMAP
0400
FFE0
1500
2480
FFE0
2080
3F80
2080
3F80
0000
FFE0
ENDCHAR
STARTCHAR U_6821
ENCODING 26657
SWIDTH 1000 0
DWIDTH 12 0
BBX 11 11 0 -1
BITMAP
2200
2100
2FE0
F000
2280
7440
6AA0
A280
2100
2280
2C60
ENDCHAR
STARTCHAR U_6837
ENCODING 26679
SWIDTH 1000 0
DWIDTH 12 0
BBX 11 11 0 -1
BITMAP
2440
2280
FFE0
2100
77C0
6100
A100
2FE0
2100
2100
2100
ENDCHAR
STARTCHAR U_68C0
ENCODING 26816
SWIDTH 1000 0
DWIDTH 12 0
BBX 11 11 0 -1
BITMAP
2100
2280
FC40
2820
27C0
7000
6920
A4A0
2240
2280
2FE0
ENDCHAR
STARTCHAR U_6A21
ENCODING 27169
SWIDTH 1000 0
DWIDTH 12 0
BBX 11 11 0 -1
BITMAP
2280
2FE0
F280
27C0
3440
6FC0
6440
AFE0
2100
2280
2C60
ENDCHAR
STARTCHAR U_6A2A
ENCODING 27178
SWIDTH 1000 0
DWIDTH 12 0
BBX 11 11 0 -1
BITMAP
2280
2FE0
F280
2FE0
2100
77C0
6540
A7C0
2540
27C0
2C60
ENDCHAR
STARTCHAR U_6B62
ENCODING 27490
SWIDTH 1000 0
DWIDTH 12 0
BBX 11 11 0 -1
BITMAP
0200
0200
0200
1200
13C0
1200
1200
1200
1200
1200
7FE0
ENDCHAR
STARTCHAR U_6B63
ENCODING 27491
SWIDTH 1000 0
DWIDTH 12 0
BBX 11 11 0 -1
BITMAP
0000
FFE0
0400
0400
2400
27C0
2400
2400
2400
2400
FFE0
ENDCHAR
STARTCHAR U_6C14
ENCODING 27668
SWIDTH 1000 0
DWIDTH 12 0
BBX 11 11 0 -1
BITMAP
1000
1FC0
2000
5F80
8000
3F00
0100
0120
0120
00A0
0060
ENDCHAR
STARTCHAR U_6C34
ENCODING 27700
SWIDTH 1000 0
DWIDTH 12 0
BBX 11 11 0 -1
BITMAP
0400
0400
0440
F680
1500
1500
2480
2480
4440
9420
0800
ENDCHAR
STARTCHAR U_6CD5
ENCODING 27861
SWIDTH 1000 0
DWIDTH 12 0
BBX 11 11 0 -1
BITMAP
4100
2100
07C0
8100
4100
0FE0
2100
C200
4440
4FA0
4420
ENDCHAR
STARTCHAR U_6D41
ENCODING 27969
SWIDTH 1000 0
DWIDTH 12 0
BBX 11 11 0 -1
BITMAP
8200
5FE0
0400
8880
5FC0
2040
2A80
CA80
4AA0
4AA0
5260
ENDCHAR
STARTCHAR U_6D4B
ENCODING 27979
SWIDTH 1000 0
DWIDTH 12 0
BBX 11 11 0 -1
BITMAP
BE20
62A0
2AA0
AAA0
6AA0
2AA0
2AA0
C8A0
5420
6220
40E0
ENDCHAR
STARTCHAR U_6D88
ENCODING 28040
SWIDTH 1000 0
DWIDTH 12 0
BBX 11 11 0 -1
BITMAP
4920
2540
8100
57E0
1420
27E0
2420
C7E0
4420
4420
4460
ENDCHAR
STARTCHAR U_6E29
ENCODING 28201
SWIDTH 1000 0
DWIDTH 12 0
BBX 11 11 0 -1
BITMAP
47C0
2440
07C0
9440
57C0
2000
2FE0
CAA0
4AA0
4AA0
5FE0
ENDCHAR
STARTCHAR U_6EDA
ENCODING 28378
SWIDTH 1000 0
DWIDTH 12 0
BBX 11 11 0 -1
BITMAP
4100
2FE0
0440
8920
52A0
2740
2220
C540
5C80
4540
4620
ENDCHAR
STARTCHAR U_70B9
ENCODING 28857
SWIDTH 1000 0
DWIDTH 12 0
BBX 11 11 0 -1
BITMAP
0400
0400
07C0
0400
3F80
2080
2080
3F80
0000
5240
8920
ENDCHAR
STARTCHAR U_72B6
ENCODING 29366
SWIDTH 1000 0
DWIDTH 12 0
BBX 11 11 0 -1
BITMAP
1180
9140
5100
5FE0
1100
1100
3280
D280
1440
1440
1820
ENDCHAR
STARTCHAR U_7406
ENCODING 29702
SWIDTH 1000 0
DWIDTH 12 0
BBX 11 11 0 -1
BITMAP
0FE0
F920
2FE0
2920
2920
FFE0
2100
27C0
3100
C100
0FE0
ENDCHAR
STARTCHAR U_7528
ENCODING 29992
SWIDTH 1000 0
DWIDTH 12 0
BBX 11 11 0 -1
BITMAP
7FC0
4440
4440
7FC0
4440
4440
7FC0
4440
4440
8440
84C0
ENDCHAR
STARTCHAR U_770B
ENCODING 30475
SWIDTH 1000 0
DWIDTH 12 0
BBX 11 11 0 -1
BITMAP
7FC0
0400
7F80
0800
FFE0
1080
3F80
5080
9F80
1080
1F80
ENDCHAR
STARTCHAR U_77ED
ENCODING 30701
SWIDTH 1000 0
DWIDTH 12 0
BBX 11 11 0 -1
BITMAP
4FE0
4000
77C0
A440
2440
F7C0
2000
2440
5280
4080
8FE0
ENDCHAR
STARTCHAR U_786E
ENCODING 30830
SWIDTH 1000 0
DWIDTH 12 0
BBX 11 11 0 -1
BITMAP
0200
F3C0
2480
4FE0
F520
57E0
5520
57E0
7520
4520
0860
ENDCHAR
STARTCHAR U_78C1
ENCODING 30913
SWIDTH 1000 0
DWIDTH 12 0
BBX 11 11 0 -1
BITMAP
0440
F280
2FE0
2480
74A0
DB20
5FC0
5240
7480
5B40
1DA0
ENDCHAR
STARTCHAR U_793A
ENCODING 31034
SWIDTH 1000 0
DWIDTH 12 0
BBX 11 11 0 -1
BITMAP
0000
7FC0
0000
0000
FFE0
0400
2480
2440
4420
8420
0C00
ENDCHAR
STARTCHAR U_79BB
ENCODING 31163
SWIDTH 1000 0
DWIDTH 12 0
BBX 11 11 0 -1
BITMAP
0400
FFE0
2A80
2480
2A80
3F80
0400
7FC0
4940
5F40
40C0
ENDCHAR
STARTCHAR U_7B49
ENCODING 31561
SWIDTH 1000 0
DWIDTH 12 0
BBX 11 11 0 -1
BITMAP
4200
7BE0
9480
7FC0
0400
FFE0
0100
7FC0
1100
0900
0300
ENDCHAR
STARTCHAR U_7BA1
ENCODING 31649
SWIDTH 1000 0
DWIDTH 12 0
BBX 11 11 0 -1
BITMAP
2100
3DE0
5280
FFE0
8020
3F80
2080
3FC0
2040
2040
3FC0
ENDCHAR
STARTCHAR U_7CFB
ENCODING 31995
SWIDTH 1000 0
DWIDTH 12 0
BBX 11 11 0 -1
BITMAP
01C0
7E00
0880
3F00
0400
0880
7FC0
0440
1500
2480
4C40
ENDCHAR
STARTCHAR U_7D27
ENCODING 32039
SWIDTH 1000 0
DWIDTH 12 0
BBX 11 11 0 -1
BITMAP
17E0
5240
5180
5660
0880
1F00
0880
3F80
1540
2480
4C40
ENDCHAR
STARTCHAR U_7EBF
ENCODING 32447
SWIDTH 1000 0
DWIDTH 12 0
BBX 11 11 0 -1
BITMAP
2280
2240
43C0
4E00
E3E0
2E00
4240
F280
0920
32A0
CC60
ENDCHAR
STARTCHAR U_7ED5
ENCODING 32469
SWIDTH 1000 0
DWIDTH 12 0
BBX 11 11 0 -1
BITMAP
2200
2200
4FE0
5240
E380
2EA0
5060
E7C0
0280
32A0
CCE0
ENDCHAR
STARTCHAR U_7EDF
ENCODING 32479
SWIDTH 1000 0
DWIDTH 12 0
BBX 11 11 0 -1
BITMAP
2100
2FE0
4200
5440
EFE0
22A0
4280
F280
02A0
34A0
C8E0
ENDCHAR
STARTCHAR U_7EE7
ENCODING 32487
SWIDTH 1000 0
DWIDTH 12 0
BBX 11 11 0 -1
BITMAP
2480
26A0
45C0
5480
E7E0
2480
45C0
F6A0
0480
3480
C7E0
ENDCHAR
STARTCHAR U_7EEA
ENCODING 32490
SWIDTH 1000 0
DWIDTH 12 0
BBX 11 11 0 -1
BITMAP
2100
27A0
4940
57E0
E100
23E0
4620
F3E0
0A20
33E0
C220
ENDCHAR
STARTCHAR U_7EED
ENCODING 32493
SWIDTH 1000 0
DWIDTH 12 0
BBX 11 11 0 -1
BITMAP
2100
27C0
4100
57E0
E4A0
2A80
4480
EFE0
0100
32C0
CC20
ENDCHAR
STARTCHAR U_7EF4
ENCODING 32500
SWIDTH 1000 0
DWIDTH 12 0
BBX 11 11 0 -1
BITMAP
2300
2480
4FE0
5480
E7C0
2480
4480
F7C0
0C80
3480
C7E0
ENDCHAR
STARTCHAR U_7F6E
ENCODING 32622
SWIDTH 1000 0
DWIDTH 12 0
BBX 11 11 0 -1
BITMAP
7FC0
4A40
7FC0
0400
FFE0
2080
3F80
2080
3F80
2080
FFE0
ENDCHAR
STARTCHAR U_7FFB
ENCODING 32763
SWIDTH 1000 0
DWIDTH 12 0
BBX 11 11 0 -1
BITMAP
1800
E7E0
A920
FDA0
7360
A920
FB60
ADA0
F920
A920
FB60
ENDCHAR
STARTCHAR U_80FD
ENCODING 33021
SWIDTH 1000 0
DWIDTH 12 0
BBX 11 11 0 -1
BITMAP
2100
4940
FD80
0120
7DE0
4400
7D40
4580
7D20
4520
4DE0
ENDCHAR
STARTCHAR U_822A
ENCODING 33322
SWIDTH 1000 0
DWIDTH 12 0
BBX 11 11 0 -1
BITMAP
2100
7880
4FE0
6800
5B80
FA80
4A80
6A80
5AA0
4AA0
9CE0
ENDCHAR
STARTCHAR U_83DC
ENCODING 33756
SWIDTH 1000 0
DWIDTH 12 0
BBX 11 11 0 -1
BITMAP
1100
FFE0
1100
01C0
7E80
2880
1500
FFE0
1500
2480
C460
ENDCHAR
STARTCHAR U_87BA
ENCODING 34746
SWIDTH 1000 0
DWIDTH 12 0
BBX 11 11 0 -1
BITMAP
27E0
24A0
27E0
FCA0
AFE0
A940
FF80
2120
2FE0
3AC0
CDA0
ENDCHAR
STARTCHAR U_884C
ENCODING 34892
SWIDTH 1000 0
DWIDTH 12 0
BBX 11 11 0 -1
BITMAP
27C0
4000
8000
1000
2FE0
6080
A080
2080
2080
2080
2380
ENDCHAR
STARTCHAR U_8868
ENCODING 34920
SWIDTH 1000 0
DWIDTH 12 0
BBX 11 11 0 -1
BITMAP
0400
7FC0
0400
3F80
0400
FFE0
0A40
1280
3100
D480
1860
ENDCHAR
STARTCHAR U_89C6
ENCODING 35270
SWIDTH 1000 0
DWIDTH 12 0
BBX 11 11 0 -1
BITMAP
47C0
2440
F540
1540
2540
7540
A540
2100
2320
2520
28E0
ENDCHAR
STARTCHAR U_89C8
ENCODING 35272
SWIDTH 1000 0
DWIDTH 12 0
BBX 11 11 0 -1
BITMAP
1200
53E0
5480
5040
3F80
2080
2480
2480
24A0
1A20
E3E0
ENDCHAR
STARTCHAR U_89E3
ENCODING 35299
SWIDTH 1000 0
DWIDTH 12 0
BBX 11 11 0 -1
BITMAP
23E0
7920
5220
FCC0
5680
7FE0
5480
7FE0
5480
5480
8C80
ENDCHAR
STARTCHAR U_8BA1
ENCODING 35745
SWIDTH 1000 0
DWIDTH 12 0
BBX 11 11 0 -1
BITMAP
4100
2100
0100
0FE0
E100
2100
2100
2900
3100
2100
0100
ENDCHAR
STARTCHAR U_8BA4
ENCODING 35748
SWIDTH 1000 0
DWIDTH 12 0
BBX 11 11 0 -1
BITMAP
4100
2100
0100
0100
E100
2100
2280
2A80
3440
2840
1020
ENDCHAR
STARTCHAR U_8BBE
ENCODING 35774
SWIDTH 1000 0
DWIDTH 12 0
BBX 11 11 0 -1
BITMAP
4780
2480
0480
08E0
E000
2FC0
2440
2280
3100
2280
1C60
ENDCHAR
STARTCHAR U_8BCA
ENCODING 35786
SWIDTH 1000 0
DWIDTH 12 0
BBX 11 11 0 -1
BITMAP
4100
2280
0440
0920
E200
2480
2120
2A40
3080
6100
0600
ENDCHAR
STARTCHAR U_8BD5
ENCODING 35797
SWIDTH 1000 0
DWIDTH 12 0
BBX 11 11 0 -1
BITMAP
4140
2120
1FE0
0100
EF00
2500
2500
24A0
26A0
3860
2020
ENDCHAR
STARTCHAR U_8BEF
ENCODING 35823
SWIDTH 1000 0
DWIDTH 12 0
BBX 11 11 0 -1
BITMAP
47C0
2440
0440
07C0
E000
27C0
2100
2FE0
3280
2440
0820
ENDCHAR
STARTCHAR U_8BF4
ENCODING 35828
SWIDTH 1000 0
DWIDTH 12 0
BBX 11 11 0 -1
BITMAP
4440
2280
07C0
0440
E440
27C0
2280
2A80
32A0
24A0
08E0
ENDCHAR
STARTCHAR U_8BF7
ENCODING 35831
SWIDTH 1000 0
DWIDTH 12 0
BBX 11 11 0 -1
BITMAP
4100
2FE0
2100
07C0
E100
2FE0
2440
27C0
2440
37C0
2440
ENDCHAR
STARTCHAR U_8C03
ENCODING 35843
SWIDTH 1000 0
DWIDTH 12 0
BBX 11 11 0 -1
BITMAP
4FE0
2920
0BA0
E920
2FE0
2820
2BA0
2AA0
3BA0
2820
10E0
ENDCHAR
STARTCHAR U_8D25
ENCODING 36133
SWIDTH 1000 0
DWIDTH 12 0
BBX 11 11 0 -1
BITMAP
F900
8900
A9E0
A940
AB40
AD40
A940
2140
5080
4940
8A20
ENDCHAR
STARTCHAR U_8D28
ENCODING 36136
SWIDTH 1000 0
DWIDTH 12 0
BBX 11 11 0 -1
BITMAP
01C0
7E00
4200
7FE0
4200
5FC0
5040
5240
5240
8500
B8E0
ENDCHAR
STARTCHAR U_8D8B
ENCODING 36235
SWIDTH 1000 0
DWIDTH 12 0
BBX 11 11 0 -1
BITMAP
1100
11C0
7E40
1080
FFE0
1020
5DE0
5020
73E0
9800
87E0
ENDCHAR
STARTCHAR U_8DDD
ENCODING 36317
SWIDTH 1000 0
DWIDTH 12 0
BBX 11 11 0 -1
BITMAP
7BE0
4A00
4A00
7BE0
1220
5220
5A20
53E0
5200
5E00
E3E0
ENDCHAR
STARTCHAR U_8F6C
ENCODING 36716
SWIDTH 1000 0
DWIDTH 12 0
BBX 11 11 0 -1
BITMAP
2100
F7C0
4100
6FE0
A200
F7C0
2040
3A80
E100
2080
2080
ENDCHAR
STARTCHAR U_8F74
ENCODING 36724
SWIDTH 1000 0
DWIDTH 12 0
BBX 11 11 0 -1
BITMAP
2080
F880
47E0
64A0
A4A0
FCA0
27E0
3CA0
E4A0
27E0
2420
ENDCHAR
STARTCHAR U_8FC7
ENCODING 36807
SWIDTH 1000 0
DWIDTH 12 0
BBX 11 11 0 -1
BITMAP
4080
2080
2FE0
0080
E480
2280
2080
2080
2180
5000
8FE0
ENDCHAR
STARTCHAR U_8FD0
ENCODING 36816
SWIDTH 1000 0
DWIDTH 12 0
BBX 11 11 0 -1
BITMAP
47C0
2000
2000
0FE0
E200
2280
2440
2FA0
2420
5000
8FE0
ENDCHAR
STARTCHAR U_8FD4
ENCODING 36820
SWIDTH 1000 0
DWIDTH 12 0
BBX 11 11 0 -1
BITMAP
4060
2780
2400
07E0
E620
2540
2480
2940
2620
5000
8FE0
ENDCHAR
STARTCHAR U_8FDB
ENCODING 36827
SWIDTH 1000 0
DWIDTH 12 0
BBX 11 11 0 -1
BITMAP
4480
2480
2FC0
0480
E480
3FE0
2480
2480
2880
5080
8FE0
ENDCHAR
STARTCHAR U_8FDC
ENCODING 36828
SWIDTH 1000 0
DWIDTH 12 0
BBX 11 11 0 -1
BITMAP
47C0
2000
2000
0FE0
E280
2280
22A0
24A0
2860
5000
8FE0
ENDCHAR
STARTCHAR U_8FDE
ENCODING 36830
SWIDTH 1000 0
DWIDTH 12 0
BBX 11 11 0 -1
BITMAP
4200
2FE0
2200
0500
EFC0
2100
2FE0
2100
2100
5100
8FE0
ENDCHAR
STARTCHAR U_9000
ENCODING 36864
SWIDTH 1000 0
DWIDTH 12 0
BBX 11 11 0 -1
BITMAP
8FC0
4840
4FC0
0840
CFC0
4800
4B40
4880
4E40
B000
8FE0
ENDCHAR
STARTCHAR U_9009
ENCODING 36873
SWIDTH 1000 0
DWIDTH 12 0
BBX 11 11 0 -1
BITMAP
4500
2500
27C0
0900
EFE0
2280
22A0
24A0
2860
5000
8FE0
ENDCHAR
STARTCHAR U_901A
ENCODING 36890
SWIDTH 1000 0
DWIDTH 12 0
BBX 11 11 0 -1
BITMAP
4FC0
2280
2FE0
0920
EFE0
2920
2FE0
2920
2960
5000
8FE0
ENDCHAR
STARTCHAR U_901F
ENCODING 36895
SWIDTH 1000 0
DWIDTH 12 0
BBX 11 11 0 -1
BITMAP
4100
3FE0
2100
0FE0
E920
2FE0
2380
2540
2920
5100
8FE0
ENDCHAR
STARTCHAR U_9053
ENCODING 36947
SWIDTH 1000 0
DWIDTH 12 0
BBX 11 11 0 -1
BITMAP
4440
2280
2FE0
0100
E7C0
2440
27C0
2440
27C0
5000
8FE0
ENDCHAR
STARTCHAR U_9065
ENCODING 36965
SWIDTH 1000 0
DWIDTH 12 0
BBX 11 11 0 -1
BITMAP
40E0
2F20
2540
07E0
E900
3FE0
2100
2920
2FE0
5000
8FE0
ENDCHAR
STARTCHAR U_91C7
ENCODING 37319
SWIDTH 1000 0
DWIDTH 12 0
BBX 11 11 0 -1
BITMAP
0780
7840
2480
1100
0400
FFE0
0E00
1500
2480
4460
8420
ENDCHAR
STARTCHAR U_91CD
ENCODING 37325
SWIDTH 1000 0
DWIDTH 12 0
BBX 11 11 0 -1
BITMAP
7FC0
0400
FFE0
2480
3F80
2480
3F80
0400
7FC0
0400
FFE0
ENDCHAR
STARTCHAR U_91CF
ENCODING 37327
SWIDTH 1000 0
DWIDTH 12 0
BBX 11 11 0 -1
BITMAP
3F80
2080
3F80
2080
FFE0
2480
3F80
2480
7FC0
0400
FFE0
ENDCHAR
STARTCHAR U_91D1
ENCODING 37329
SWIDTH 1000 0
DWIDTH 12 0
BBX 11 11 0 -1
BITMAP
0400
0A00
1100
2080
DF60
0400
7FC0
0400
2480
1500
FFE0
ENDCHAR
STARTCHAR U_9501
ENCODING 38145
SWIDTH 1000 0
DWIDTH 12 0
BBX 11 11 0 -1
BITMAP
2920
2540
4100
77C0
8440
7540
2540
F540
2540
3280
2C60
ENDCHAR
STARTCHAR U_9519
ENCODING 38169
SWIDTH 1000 0
DWIDTH 12 0
BBX 11 11 0 -1
BITMAP
4280
4FE0
7280
8280
EFE0
4000
F7C0
4440
47C0
5440
67C0
ENDCHAR
STARTCHAR U_952E
ENCODING 38190
SWIDTH 1000 0
DWIDTH 12 0
BBX 11 11 0 -1
BITMAP
5C80
47E0
68A0
8BE0
FCA0
47E0
E480
57E0
4880
6C80
53E0
ENDCHAR
STARTCHAR U_957F
ENCODING 38271
SWIDTH 1000 0
DWIDTH 12 0
BBX 11 11 0 -1
BITMAP
1080
1100
1200
1400
1800
7FE0
1400
1200
1100
1480
1860
ENDCHAR
STARTCHAR U_95EA
ENCODING 38378
SWIDTH 1000 0
DWIDTH 12 0
BBX 11 11 0 -1
BITMAP
27E0
1020
4420
4420
4420
4620
4920
50A0
6020
4020
40E0
ENDCHAR
STARTCHAR U_9640
ENCODING 38464
SWIDTH 1000 0
DWIDTH 12 0
BBX 11 11 0 -1
BITMAP
F200
9100
AFE0
C820
A200
9240
9280
D300
A220
8220
81E0
ENDCHAR
STARTCHAR U_96C6
ENCODING 38598
SWIDTH 1000 0
DWIDTH 12 0
BBX 11 11 0 -1
BITMAP
1400
2200
7FE0
A400
3FC0
2400
3FC0
2400
FFE0
1500
E4E0
ENDCHAR
STARTCHAR U_9700
ENCODING 38656
SWIDTH 1000 0
DWIDTH 12 0
BBX 11 11 0 -1
BITMAP
7FC0
0400
FFE0
B5A0
0400
FFE0
0800
7FC0
4A40
4A40
4AC0
ENDCHAR
STARTCHAR U_9759
ENCODING 38745
SWIDTH 1000 0
DWIDTH 12 0
BBX 11 11 0 -1
BITMAP
2100
FDC0
2280
7BC0
2140
FFE0
4940
6BC0
5900
4900
5B00
ENDCHAR
STARTCHAR U_9762
ENCODING 38754
SWIDTH 1000 0
DWIDTH 12 0
BBX 11 11 0 -1
BITMAP
7FE0
0400
0800
7FE0
4920
4F20
4920
4F20
4920
7FE0
4020
ENDCHAR
STARTCHAR U_9875
ENCODING 39029
SWIDTH 1000 0
DWIDTH 12 0
BBX 11 11 0 -1
BITMAP
FFE0
0400
3F80
2080
2480
2480
2480
2680
0900
10C0
6040
ENDCHAR
STARTCHAR U_9879
ENCODING 39033
SWIDTH 1000 0
DWIDTH 12 0
BBX 11 11 0 -1
BITMAP
07E0
F900
27E0
2420
2520
2520
2520
3D20
C180
0240
0C20
ENDCHAR
STARTCHAR U_98DE
ENCODING 39134
SWIDTH 1000 0
DWIDTH 12 0
BBX 11 11 0 -1
BITMAP
FC00
0440
0480
0500
0700
0480
0440
0200
0220
0120
00E0
ENDCHAR
STARTCHAR U_9ED8
ENCODING 40664
SWIDTH 1000 0
DWIDTH 12 0
BBX 11 11 0 -1
BITMAP
F900
A980
F940
AFE0
F900
2100
F900
2280
FA80
5440
A820
ENDCHAR
STARTCHAR U_FF08
ENCODING 65288
SWIDTH 1000 0
DWIDTH 12 0
BBX 3 12 7 -1
BITMAP
20
40
40
80
80
80
80
80
80
40
40
20
ENDCHAR
STARTCHAR U_FF09
ENCODING 65289
SWIDTH 1000 0
DWIDTH 12 0
BBX 3 12 3 -1
BITMAP
80
40
40
20
20
20
20
20
20
40
40
80
ENDCHAR
STARTCHAR U_FF1A
ENCODING 65306
SWIDTH 0 0
DWIDTH 12 0
BBX 2 7 6 1
BITMAP
C0
C0
00
00
00
C0
C0
ENDCHAR
STARTCHAR U_FF1F
ENCODING 65311
SWIDTH 1000 0
DWIDTH 12 0
BBX 6 11 4 -1
BITMAP
78
CC
CC
0C
18
30
30
30
00
30
30
ENDCHAR
ENDFONT
